<svg xmlns="http://www.w3.org/2000/svg" xmlns:xlink="http://www.w3.org/1999/xlink" width="400" zoomAndPan="magnify" viewBox="0 0 300 112.499997" height="150" preserveAspectRatio="xMidYMid meet" version="1.0"><defs><g/><clipPath id="cf7b6f0f84"><path d="M 0.664062 0 L 299.335938 0 L 299.335938 112.003906 L 0.664062 112.003906 Z M 0.664062 0 " clip-rule="nonzero"/></clipPath><clipPath id="662422bca8"><path d="M 20 21.390625 L 105.539062 21.390625 L 105.539062 43 L 20 43 Z M 20 21.390625 " clip-rule="nonzero"/></clipPath><clipPath id="1551793185"><path d="M 18.179688 44 L 104 44 L 104 66 L 18.179688 66 Z M 18.179688 44 " clip-rule="nonzero"/></clipPath><clipPath id="c57564b96e"><path d="M 18.179688 45 L 33 45 L 33 60 L 18.179688 60 Z M 18.179688 45 " clip-rule="nonzero"/></clipPath><clipPath id="f0562c521e"><path d="M 20 69 L 105 69 L 105 90.832031 L 20 90.832031 Z M 20 69 " clip-rule="nonzero"/></clipPath></defs><g clip-path="url(#cf7b6f0f84)"><path fill="#ffffff" d="M 0.664062 0 L 299.335938 0 L 299.335938 119.46875 L 0.664062 119.46875 Z M 0.664062 0 " fill-opacity="1" fill-rule="nonzero"/><path fill="#ffffff" d="M 0.664062 0 L 299.335938 0 L 299.335938 112.003906 L 0.664062 112.003906 Z M 0.664062 0 " fill-opacity="1" fill-rule="nonzero"/><path fill="#3787ff" d="M 0.664062 0 L 299.335938 0 L 299.335938 112.003906 L 0.664062 112.003906 Z M 0.664062 0 " fill-opacity="1" fill-rule="nonzero"/></g><g fill="#f7faff" fill-opacity="1"><g transform="translate(179.825451, 30.613937)"><g><path d="M 10.453125 -11.9375 C 9.078125 -12.695312 7.882812 -13.078125 6.875 -13.078125 C 6.1875 -13.078125 5.648438 -12.941406 5.265625 -12.671875 C 4.890625 -12.398438 4.703125 -11.992188 4.703125 -11.453125 C 4.703125 -10.953125 4.976562 -10.507812 5.53125 -10.125 C 6.082031 -9.75 6.816406 -9.394531 7.734375 -9.0625 C 8.472656 -8.78125 9.101562 -8.460938 9.625 -8.109375 C 10.15625 -7.765625 10.59375 -7.285156 10.9375 -6.671875 C 11.289062 -6.066406 11.46875 -5.289062 11.46875 -4.34375 C 11.46875 -3.53125 11.253906 -2.773438 10.828125 -2.078125 C 10.410156 -1.390625 9.796875 -0.84375 8.984375 -0.4375 C 8.171875 -0.03125 7.203125 0.171875 6.078125 0.171875 C 5.140625 0.171875 4.207031 0.0351562 3.28125 -0.234375 C 2.351562 -0.515625 1.488281 -0.941406 0.6875 -1.515625 L 2.0625 -3.9375 C 2.601562 -3.539062 3.222656 -3.210938 3.921875 -2.953125 C 4.617188 -2.691406 5.242188 -2.5625 5.796875 -2.5625 C 6.453125 -2.5625 7.019531 -2.703125 7.5 -2.984375 C 7.988281 -3.265625 8.234375 -3.71875 8.234375 -4.34375 C 8.234375 -5.15625 7.472656 -5.863281 5.953125 -6.46875 C 5.054688 -6.820312 4.304688 -7.160156 3.703125 -7.484375 C 3.097656 -7.816406 2.578125 -8.289062 2.140625 -8.90625 C 1.710938 -9.519531 1.5 -10.289062 1.5 -11.21875 C 1.5 -12.570312 1.941406 -13.660156 2.828125 -14.484375 C 3.722656 -15.316406 4.914062 -15.769531 6.40625 -15.84375 C 7.570312 -15.84375 8.546875 -15.707031 9.328125 -15.4375 C 10.117188 -15.175781 10.882812 -14.804688 11.625 -14.328125 Z M 10.453125 -11.9375 "/></g></g></g><g fill="#f7faff" fill-opacity="1"><g transform="translate(192.299949, 30.613937)"><g><path d="M 6.203125 -2.296875 C 6.804688 -2.296875 7.425781 -2.5 8.0625 -2.90625 L 9.390625 -0.6875 C 8.878906 -0.394531 8.335938 -0.164062 7.765625 0 C 7.203125 0.164062 6.660156 0.25 6.140625 0.25 C 5.023438 0.25 4.066406 0.0390625 3.265625 -0.375 C 2.460938 -0.789062 1.851562 -1.378906 1.4375 -2.140625 C 1.019531 -2.910156 0.8125 -3.789062 0.8125 -4.78125 C 0.8125 -5.6875 1.050781 -6.523438 1.53125 -7.296875 C 2.007812 -8.066406 2.660156 -8.675781 3.484375 -9.125 C 4.316406 -9.570312 5.222656 -9.796875 6.203125 -9.796875 C 7.546875 -9.796875 8.648438 -9.40625 9.515625 -8.625 C 10.378906 -7.84375 10.941406 -6.722656 11.203125 -5.265625 L 4.34375 -3.078125 C 4.800781 -2.554688 5.421875 -2.296875 6.203125 -2.296875 Z M 5.96875 -7.46875 C 5.300781 -7.46875 4.765625 -7.238281 4.359375 -6.78125 C 3.960938 -6.320312 3.765625 -5.707031 3.765625 -4.9375 L 3.765625 -4.75 L 7.875 -6.140625 C 7.570312 -7.023438 6.9375 -7.46875 5.96875 -7.46875 Z M 5.96875 -7.46875 "/></g></g></g><g fill="#f7faff" fill-opacity="1"><g transform="translate(204.132541, 30.613937)"><g><path d="M 6.203125 -2.296875 C 6.804688 -2.296875 7.425781 -2.5 8.0625 -2.90625 L 9.390625 -0.6875 C 8.878906 -0.394531 8.335938 -0.164062 7.765625 0 C 7.203125 0.164062 6.660156 0.25 6.140625 0.25 C 5.023438 0.25 4.066406 0.0390625 3.265625 -0.375 C 2.460938 -0.789062 1.851562 -1.378906 1.4375 -2.140625 C 1.019531 -2.910156 0.8125 -3.789062 0.8125 -4.78125 C 0.8125 -5.6875 1.050781 -6.523438 1.53125 -7.296875 C 2.007812 -8.066406 2.660156 -8.675781 3.484375 -9.125 C 4.316406 -9.570312 5.222656 -9.796875 6.203125 -9.796875 C 7.546875 -9.796875 8.648438 -9.40625 9.515625 -8.625 C 10.378906 -7.84375 10.941406 -6.722656 11.203125 -5.265625 L 4.34375 -3.078125 C 4.800781 -2.554688 5.421875 -2.296875 6.203125 -2.296875 Z M 5.96875 -7.46875 C 5.300781 -7.46875 4.765625 -7.238281 4.359375 -6.78125 C 3.960938 -6.320312 3.765625 -5.707031 3.765625 -4.9375 L 3.765625 -4.75 L 7.875 -6.140625 C 7.570312 -7.023438 6.9375 -7.46875 5.96875 -7.46875 Z M 5.96875 -7.46875 "/></g></g></g><g fill="#f7faff" fill-opacity="1"><g transform="translate(215.965132, 30.613937)"><g/></g></g><g fill="#f7faff" fill-opacity="1"><g transform="translate(222.919183, 30.613937)"><g><path d="M 11.609375 -9.359375 L 11.609375 0 L 8.609375 0 L 8.609375 -1.15625 C 7.703125 -0.21875 6.660156 0.25 5.484375 0.25 C 4.097656 0.25 2.972656 -0.160156 2.109375 -0.984375 C 1.242188 -1.804688 0.8125 -3.035156 0.8125 -4.671875 C 0.8125 -5.691406 1.019531 -6.59375 1.4375 -7.375 C 1.863281 -8.15625 2.425781 -8.757812 3.125 -9.1875 C 3.820312 -9.613281 4.570312 -9.828125 5.375 -9.828125 C 6.195312 -9.828125 6.847656 -9.703125 7.328125 -9.453125 C 7.816406 -9.203125 8.25 -8.847656 8.625 -8.390625 L 8.8125 -9.359375 Z M 6.34375 -2.1875 C 7.382812 -2.1875 8.140625 -2.65625 8.609375 -3.59375 L 8.609375 -5.890625 C 8.429688 -6.347656 8.128906 -6.710938 7.703125 -6.984375 C 7.285156 -7.253906 6.796875 -7.390625 6.234375 -7.390625 C 5.578125 -7.390625 5.015625 -7.144531 4.546875 -6.65625 C 4.085938 -6.164062 3.859375 -5.550781 3.859375 -4.8125 C 3.859375 -4.332031 3.96875 -3.890625 4.1875 -3.484375 C 4.414062 -3.078125 4.71875 -2.757812 5.09375 -2.53125 C 5.476562 -2.300781 5.894531 -2.1875 6.34375 -2.1875 Z M 6.34375 -2.1875 "/></g></g></g><g fill="#f7faff" fill-opacity="1"><g transform="translate(236.056997, 30.613937)"><g><path d="M 4.53125 -16.890625 L 4.53125 0 L 1.546875 0 L 1.546875 -16.890625 Z M 4.53125 -16.890625 "/></g></g></g><g fill="#f7faff" fill-opacity="1"><g transform="translate(242.133764, 30.613937)"><g><path d="M 4.53125 -16.890625 L 4.53125 0 L 1.546875 0 L 1.546875 -16.890625 Z M 4.53125 -16.890625 "/></g></g></g><g fill="#f7faff" fill-opacity="1"><g transform="translate(248.21053, 30.613937)"><g/></g></g><g fill="#f7faff" fill-opacity="1"><g transform="translate(255.164582, 30.613937)"><g><path d="M 5.421875 -13.46875 L 5.421875 -9.390625 L 7.6875 -9.390625 L 7.6875 -7.0625 L 5.421875 -7.0625 L 5.421875 0 L 2.421875 0 L 2.421875 -7.0625 L 0.96875 -7.0625 L 0.96875 -9.390625 L 2.421875 -9.390625 L 2.421875 -13.46875 Z M 5.421875 -13.46875 "/></g></g></g><g fill="#f7faff" fill-opacity="1"><g transform="translate(263.595031, 30.613937)"><g><path d="M 8.046875 -9.796875 C 8.929688 -9.796875 9.671875 -9.53125 10.265625 -9 C 10.859375 -8.476562 11.160156 -7.8125 11.171875 -7 L 11.171875 0 L 8.171875 0 L 8.171875 -5.890625 C 8.128906 -6.796875 7.675781 -7.25 6.8125 -7.25 C 6.125 -7.25 5.570312 -6.925781 5.15625 -6.28125 C 4.738281 -5.644531 4.53125 -4.820312 4.53125 -3.8125 L 4.53125 0 L 1.546875 0 L 1.546875 -16.890625 L 4.46875 -16.890625 L 4.46875 -7.875 C 4.8125 -8.476562 5.285156 -8.945312 5.890625 -9.28125 C 6.503906 -9.625 7.222656 -9.796875 8.046875 -9.796875 Z M 8.046875 -9.796875 "/></g></g></g><g fill="#f7faff" fill-opacity="1"><g transform="translate(276.304895, 30.613937)"><g><path d="M 6.203125 -2.296875 C 6.804688 -2.296875 7.425781 -2.5 8.0625 -2.90625 L 9.390625 -0.6875 C 8.878906 -0.394531 8.335938 -0.164062 7.765625 0 C 7.203125 0.164062 6.660156 0.25 6.140625 0.25 C 5.023438 0.25 4.066406 0.0390625 3.265625 -0.375 C 2.460938 -0.789062 1.851562 -1.378906 1.4375 -2.140625 C 1.019531 -2.910156 0.8125 -3.789062 0.8125 -4.78125 C 0.8125 -5.6875 1.050781 -6.523438 1.53125 -7.296875 C 2.007812 -8.066406 2.660156 -8.675781 3.484375 -9.125 C 4.316406 -9.570312 5.222656 -9.796875 6.203125 -9.796875 C 7.546875 -9.796875 8.648438 -9.40625 9.515625 -8.625 C 10.378906 -7.84375 10.941406 -6.722656 11.203125 -5.265625 L 4.34375 -3.078125 C 4.800781 -2.554688 5.421875 -2.296875 6.203125 -2.296875 Z M 5.96875 -7.46875 C 5.300781 -7.46875 4.765625 -7.238281 4.359375 -6.78125 C 3.960938 -6.320312 3.765625 -5.707031 3.765625 -4.9375 L 3.765625 -4.75 L 7.875 -6.140625 C 7.570312 -7.023438 6.9375 -7.46875 5.96875 -7.46875 Z M 5.96875 -7.46875 "/></g></g></g><g fill="#f7faff" fill-opacity="1"><g transform="translate(149.269849, 60.481191)"><g><path d="M 4.53125 -16.890625 L 4.53125 0 L 1.546875 0 L 1.546875 -16.890625 Z M 4.53125 -16.890625 "/></g></g></g><g fill="#f7faff" fill-opacity="1"><g transform="translate(155.346616, 60.481191)"><g><path d="M 4.53125 -9.359375 L 4.53125 0 L 1.546875 0 L 1.546875 -9.359375 Z M 1.484375 -12.671875 C 1.484375 -13.109375 1.648438 -13.472656 1.984375 -13.765625 C 2.316406 -14.054688 2.695312 -14.203125 3.125 -14.203125 C 3.539062 -14.203125 3.910156 -14.054688 4.234375 -13.765625 C 4.566406 -13.472656 4.734375 -13.109375 4.734375 -12.671875 C 4.734375 -12.242188 4.566406 -11.890625 4.234375 -11.609375 C 3.910156 -11.328125 3.539062 -11.1875 3.125 -11.1875 C 2.695312 -11.1875 2.316406 -11.328125 1.984375 -11.609375 C 1.648438 -11.890625 1.484375 -12.242188 1.484375 -12.671875 Z M 1.484375 -12.671875 "/></g></g></g><g fill="#f7faff" fill-opacity="1"><g transform="translate(161.423383, 60.481191)"><g><path d="M 4.578125 0.1875 C 3.804688 0.1875 3.082031 0.0507812 2.40625 -0.21875 C 1.738281 -0.488281 1.1875 -0.863281 0.75 -1.34375 L 1.984375 -3 C 2.816406 -2.226562 3.597656 -1.84375 4.328125 -1.84375 C 4.710938 -1.84375 5.019531 -1.898438 5.25 -2.015625 C 5.488281 -2.140625 5.609375 -2.320312 5.609375 -2.5625 C 5.609375 -2.851562 5.472656 -3.070312 5.203125 -3.21875 C 4.929688 -3.375 4.625 -3.5 4.28125 -3.59375 C 3.945312 -3.695312 3.726562 -3.757812 3.625 -3.78125 C 2.800781 -4.039062 2.191406 -4.421875 1.796875 -4.921875 C 1.398438 -5.429688 1.203125 -6.015625 1.203125 -6.671875 C 1.203125 -7.171875 1.332031 -7.660156 1.59375 -8.140625 C 1.851562 -8.617188 2.257812 -9.007812 2.8125 -9.3125 C 3.375 -9.625 4.070312 -9.78125 4.90625 -9.78125 C 5.675781 -9.78125 6.332031 -9.703125 6.875 -9.546875 C 7.414062 -9.390625 7.9375 -9.132812 8.4375 -8.78125 L 7.296875 -7.015625 C 7.015625 -7.242188 6.695312 -7.429688 6.34375 -7.578125 C 6 -7.734375 5.679688 -7.8125 5.390625 -7.8125 C 5.046875 -7.8125 4.765625 -7.738281 4.546875 -7.59375 C 4.335938 -7.457031 4.234375 -7.285156 4.234375 -7.078125 C 4.222656 -6.785156 4.347656 -6.5625 4.609375 -6.40625 C 4.878906 -6.257812 5.289062 -6.109375 5.84375 -5.953125 C 5.925781 -5.921875 6.015625 -5.890625 6.109375 -5.859375 C 6.203125 -5.835938 6.300781 -5.8125 6.40625 -5.78125 C 7.875 -5.289062 8.609375 -4.40625 8.609375 -3.125 C 8.609375 -2.519531 8.457031 -1.96875 8.15625 -1.46875 C 7.851562 -0.976562 7.398438 -0.578125 6.796875 -0.265625 C 6.191406 0.0351562 5.453125 0.1875 4.578125 0.1875 Z M 4.578125 0.1875 "/></g></g></g><g fill="#f7faff" fill-opacity="1"><g transform="translate(170.987879, 60.481191)"><g><path d="M 5.421875 -13.46875 L 5.421875 -9.390625 L 7.6875 -9.390625 L 7.6875 -7.0625 L 5.421875 -7.0625 L 5.421875 0 L 2.421875 0 L 2.421875 -7.0625 L 0.96875 -7.0625 L 0.96875 -9.390625 L 2.421875 -9.390625 L 2.421875 -13.46875 Z M 5.421875 -13.46875 "/></g></g></g><g fill="#f7faff" fill-opacity="1"><g transform="translate(179.418329, 60.481191)"><g><path d="M 4.578125 0.1875 C 3.804688 0.1875 3.082031 0.0507812 2.40625 -0.21875 C 1.738281 -0.488281 1.1875 -0.863281 0.75 -1.34375 L 1.984375 -3 C 2.816406 -2.226562 3.597656 -1.84375 4.328125 -1.84375 C 4.710938 -1.84375 5.019531 -1.898438 5.25 -2.015625 C 5.488281 -2.140625 5.609375 -2.320312 5.609375 -2.5625 C 5.609375 -2.851562 5.472656 -3.070312 5.203125 -3.21875 C 4.929688 -3.375 4.625 -3.5 4.28125 -3.59375 C 3.945312 -3.695312 3.726562 -3.757812 3.625 -3.78125 C 2.800781 -4.039062 2.191406 -4.421875 1.796875 -4.921875 C 1.398438 -5.429688 1.203125 -6.015625 1.203125 -6.671875 C 1.203125 -7.171875 1.332031 -7.660156 1.59375 -8.140625 C 1.851562 -8.617188 2.257812 -9.007812 2.8125 -9.3125 C 3.375 -9.625 4.070312 -9.78125 4.90625 -9.78125 C 5.675781 -9.78125 6.332031 -9.703125 6.875 -9.546875 C 7.414062 -9.390625 7.9375 -9.132812 8.4375 -8.78125 L 7.296875 -7.015625 C 7.015625 -7.242188 6.695312 -7.429688 6.34375 -7.578125 C 6 -7.734375 5.679688 -7.8125 5.390625 -7.8125 C 5.046875 -7.8125 4.765625 -7.738281 4.546875 -7.59375 C 4.335938 -7.457031 4.234375 -7.285156 4.234375 -7.078125 C 4.222656 -6.785156 4.347656 -6.5625 4.609375 -6.40625 C 4.878906 -6.257812 5.289062 -6.109375 5.84375 -5.953125 C 5.925781 -5.921875 6.015625 -5.890625 6.109375 -5.859375 C 6.203125 -5.835938 6.300781 -5.8125 6.40625 -5.78125 C 7.875 -5.289062 8.609375 -4.40625 8.609375 -3.125 C 8.609375 -2.519531 8.457031 -1.96875 8.15625 -1.46875 C 7.851562 -0.976562 7.398438 -0.578125 6.796875 -0.265625 C 6.191406 0.0351562 5.453125 0.1875 4.578125 0.1875 Z M 4.578125 0.1875 "/></g></g></g><g fill="#f7faff" fill-opacity="1"><g transform="translate(188.982825, 60.481191)"><g/></g></g><g fill="#f7faff" fill-opacity="1"><g transform="translate(195.936876, 60.481191)"><g><path d="M 11.21875 -9.359375 L 5.1875 4.5 L 2.296875 4.5 L 4.53125 -0.5 L 0.21875 -9.359375 L 3.578125 -9.359375 L 6.03125 -3.828125 L 8.515625 -9.359375 Z M 11.21875 -9.359375 "/></g></g></g><g fill="#f7faff" fill-opacity="1"><g transform="translate(207.362915, 60.481191)"><g><path d="M 0.8125 -4.796875 C 0.8125 -5.753906 1.035156 -6.609375 1.484375 -7.359375 C 1.929688 -8.117188 2.566406 -8.710938 3.390625 -9.140625 C 4.210938 -9.578125 5.144531 -9.796875 6.1875 -9.796875 C 7.226562 -9.796875 8.144531 -9.578125 8.9375 -9.140625 C 9.726562 -8.710938 10.335938 -8.117188 10.765625 -7.359375 C 11.191406 -6.609375 11.40625 -5.753906 11.40625 -4.796875 C 11.40625 -3.835938 11.191406 -2.972656 10.765625 -2.203125 C 10.335938 -1.429688 9.726562 -0.828125 8.9375 -0.390625 C 8.144531 0.0351562 7.210938 0.25 6.140625 0.25 C 5.097656 0.25 4.171875 0.046875 3.359375 -0.359375 C 2.554688 -0.765625 1.929688 -1.34375 1.484375 -2.09375 C 1.035156 -2.851562 0.8125 -3.753906 0.8125 -4.796875 Z M 3.828125 -4.78125 C 3.828125 -4.03125 4.039062 -3.410156 4.46875 -2.921875 C 4.894531 -2.429688 5.4375 -2.1875 6.09375 -2.1875 C 6.78125 -2.1875 7.332031 -2.425781 7.75 -2.90625 C 8.175781 -3.394531 8.390625 -4.019531 8.390625 -4.78125 C 8.390625 -5.53125 8.175781 -6.144531 7.75 -6.625 C 7.332031 -7.113281 6.78125 -7.359375 6.09375 -7.359375 C 5.4375 -7.359375 4.894531 -7.113281 4.46875 -6.625 C 4.039062 -6.132812 3.828125 -5.519531 3.828125 -4.78125 Z M 3.828125 -4.78125 "/></g></g></g><g fill="#f7faff" fill-opacity="1"><g transform="translate(219.580651, 60.481191)"><g><path d="M 10.953125 -9.359375 L 10.953125 0 L 8.234375 0 L 8.03125 -1.5 C 7.695312 -0.894531 7.234375 -0.414062 6.640625 -0.0625 C 6.054688 0.28125 5.363281 0.453125 4.5625 0.453125 C 3.707031 0.453125 2.992188 0.1875 2.421875 -0.34375 C 1.847656 -0.875 1.554688 -1.546875 1.546875 -2.359375 L 1.546875 -9.359375 L 4.53125 -9.359375 L 4.53125 -3.46875 C 4.582031 -2.550781 5.003906 -2.09375 5.796875 -2.09375 C 6.453125 -2.09375 6.976562 -2.414062 7.375 -3.0625 C 7.769531 -3.707031 7.96875 -4.535156 7.96875 -5.546875 L 7.96875 -9.359375 Z M 10.953125 -9.359375 "/></g></g></g><g fill="#f7faff" fill-opacity="1"><g transform="translate(232.076546, 60.481191)"><g/></g></g><g fill="#f7faff" fill-opacity="1"><g transform="translate(239.030597, 60.481191)"><g><path d="M 8.046875 -9.796875 C 8.929688 -9.796875 9.671875 -9.53125 10.265625 -9 C 10.859375 -8.476562 11.160156 -7.8125 11.171875 -7 L 11.171875 0 L 8.171875 0 L 8.171875 -5.890625 C 8.128906 -6.796875 7.675781 -7.25 6.8125 -7.25 C 6.125 -7.25 5.570312 -6.925781 5.15625 -6.28125 C 4.738281 -5.644531 4.53125 -4.820312 4.53125 -3.8125 L 4.53125 0 L 1.546875 0 L 1.546875 -16.890625 L 4.46875 -16.890625 L 4.46875 -7.875 C 4.8125 -8.476562 5.285156 -8.945312 5.890625 -9.28125 C 6.503906 -9.625 7.222656 -9.796875 8.046875 -9.796875 Z M 8.046875 -9.796875 "/></g></g></g><g fill="#f7faff" fill-opacity="1"><g transform="translate(251.740462, 60.481191)"><g><path d="M 11.609375 -9.359375 L 11.609375 0 L 8.609375 0 L 8.609375 -1.15625 C 7.703125 -0.21875 6.660156 0.25 5.484375 0.25 C 4.097656 0.25 2.972656 -0.160156 2.109375 -0.984375 C 1.242188 -1.804688 0.8125 -3.035156 0.8125 -4.671875 C 0.8125 -5.691406 1.019531 -6.59375 1.4375 -7.375 C 1.863281 -8.15625 2.425781 -8.757812 3.125 -9.1875 C 3.820312 -9.613281 4.570312 -9.828125 5.375 -9.828125 C 6.195312 -9.828125 6.847656 -9.703125 7.328125 -9.453125 C 7.816406 -9.203125 8.25 -8.847656 8.625 -8.390625 L 8.8125 -9.359375 Z M 6.34375 -2.1875 C 7.382812 -2.1875 8.140625 -2.65625 8.609375 -3.59375 L 8.609375 -5.890625 C 8.429688 -6.347656 8.128906 -6.710938 7.703125 -6.984375 C 7.285156 -7.253906 6.796875 -7.390625 6.234375 -7.390625 C 5.578125 -7.390625 5.015625 -7.144531 4.546875 -6.65625 C 4.085938 -6.164062 3.859375 -5.550781 3.859375 -4.8125 C 3.859375 -4.332031 3.96875 -3.890625 4.1875 -3.484375 C 4.414062 -3.078125 4.71875 -2.757812 5.09375 -2.53125 C 5.476562 -2.300781 5.894531 -2.1875 6.34375 -2.1875 Z M 6.34375 -2.1875 "/></g></g></g><g fill="#f7faff" fill-opacity="1"><g transform="translate(264.878276, 60.481191)"><g><path d="M 11.21875 -9.359375 L 5.90625 0.1875 L 5.828125 0.1875 L 0.21875 -9.359375 L 3.765625 -9.359375 L 5.953125 -4.90625 L 7.875 -9.359375 Z M 11.21875 -9.359375 "/></g></g></g><g fill="#f7faff" fill-opacity="1"><g transform="translate(276.304314, 60.481191)"><g><path d="M 6.203125 -2.296875 C 6.804688 -2.296875 7.425781 -2.5 8.0625 -2.90625 L 9.390625 -0.6875 C 8.878906 -0.394531 8.335938 -0.164062 7.765625 0 C 7.203125 0.164062 6.660156 0.25 6.140625 0.25 C 5.023438 0.25 4.066406 0.0390625 3.265625 -0.375 C 2.460938 -0.789062 1.851562 -1.378906 1.4375 -2.140625 C 1.019531 -2.910156 0.8125 -3.789062 0.8125 -4.78125 C 0.8125 -5.6875 1.050781 -6.523438 1.53125 -7.296875 C 2.007812 -8.066406 2.660156 -8.675781 3.484375 -9.125 C 4.316406 -9.570312 5.222656 -9.796875 6.203125 -9.796875 C 7.546875 -9.796875 8.648438 -9.40625 9.515625 -8.625 C 10.378906 -7.84375 10.941406 -6.722656 11.203125 -5.265625 L 4.34375 -3.078125 C 4.800781 -2.554688 5.421875 -2.296875 6.203125 -2.296875 Z M 5.96875 -7.46875 C 5.300781 -7.46875 4.765625 -7.238281 4.359375 -6.78125 C 3.960938 -6.320312 3.765625 -5.707031 3.765625 -4.9375 L 3.765625 -4.75 L 7.875 -6.140625 C 7.570312 -7.023438 6.9375 -7.46875 5.96875 -7.46875 Z M 5.96875 -7.46875 "/></g></g></g><g fill="#f7faff" fill-opacity="1"><g transform="translate(140.939686, 90.348446)"><g><path d="M 11.609375 -9.359375 L 11.609375 0 L 8.609375 0 L 8.609375 -1.15625 C 7.703125 -0.21875 6.660156 0.25 5.484375 0.25 C 4.097656 0.25 2.972656 -0.160156 2.109375 -0.984375 C 1.242188 -1.804688 0.8125 -3.035156 0.8125 -4.671875 C 0.8125 -5.691406 1.019531 -6.59375 1.4375 -7.375 C 1.863281 -8.15625 2.425781 -8.757812 3.125 -9.1875 C 3.820312 -9.613281 4.570312 -9.828125 5.375 -9.828125 C 6.195312 -9.828125 6.847656 -9.703125 7.328125 -9.453125 C 7.816406 -9.203125 8.25 -8.847656 8.625 -8.390625 L 8.8125 -9.359375 Z M 6.34375 -2.1875 C 7.382812 -2.1875 8.140625 -2.65625 8.609375 -3.59375 L 8.609375 -5.890625 C 8.429688 -6.347656 8.128906 -6.710938 7.703125 -6.984375 C 7.285156 -7.253906 6.796875 -7.390625 6.234375 -7.390625 C 5.578125 -7.390625 5.015625 -7.144531 4.546875 -6.65625 C 4.085938 -6.164062 3.859375 -5.550781 3.859375 -4.8125 C 3.859375 -4.332031 3.96875 -3.890625 4.1875 -3.484375 C 4.414062 -3.078125 4.71875 -2.757812 5.09375 -2.53125 C 5.476562 -2.300781 5.894531 -2.1875 6.34375 -2.1875 Z M 6.34375 -2.1875 "/></g></g></g><g fill="#f7faff" fill-opacity="1"><g transform="translate(154.077499, 90.348446)"><g><path d="M 4.53125 -16.890625 L 4.53125 0 L 1.546875 0 L 1.546875 -16.890625 Z M 4.53125 -16.890625 "/></g></g></g><g fill="#f7faff" fill-opacity="1"><g transform="translate(160.154266, 90.348446)"><g><path d="M 4.46875 -7.21875 C 4.726562 -7.71875 5.082031 -8.164062 5.53125 -8.5625 C 5.976562 -8.957031 6.4375 -9.265625 6.90625 -9.484375 C 7.382812 -9.710938 7.757812 -9.828125 8.03125 -9.828125 L 7.875 -6.828125 C 7.789062 -6.835938 7.671875 -6.84375 7.515625 -6.84375 C 6.910156 -6.84375 6.378906 -6.6875 5.921875 -6.375 C 5.472656 -6.0625 5.125 -5.660156 4.875 -5.171875 C 4.632812 -4.679688 4.515625 -4.175781 4.515625 -3.65625 L 4.515625 0 L 1.546875 0 L 1.546875 -9.359375 L 4.234375 -9.359375 Z M 4.46875 -7.21875 "/></g></g></g><g fill="#f7faff" fill-opacity="1"><g transform="translate(168.927066, 90.348446)"><g><path d="M 6.203125 -2.296875 C 6.804688 -2.296875 7.425781 -2.5 8.0625 -2.90625 L 9.390625 -0.6875 C 8.878906 -0.394531 8.335938 -0.164062 7.765625 0 C 7.203125 0.164062 6.660156 0.25 6.140625 0.25 C 5.023438 0.25 4.066406 0.0390625 3.265625 -0.375 C 2.460938 -0.789062 1.851562 -1.378906 1.4375 -2.140625 C 1.019531 -2.910156 0.8125 -3.789062 0.8125 -4.78125 C 0.8125 -5.6875 1.050781 -6.523438 1.53125 -7.296875 C 2.007812 -8.066406 2.660156 -8.675781 3.484375 -9.125 C 4.316406 -9.570312 5.222656 -9.796875 6.203125 -9.796875 C 7.546875 -9.796875 8.648438 -9.40625 9.515625 -8.625 C 10.378906 -7.84375 10.941406 -6.722656 11.203125 -5.265625 L 4.34375 -3.078125 C 4.800781 -2.554688 5.421875 -2.296875 6.203125 -2.296875 Z M 5.96875 -7.46875 C 5.300781 -7.46875 4.765625 -7.238281 4.359375 -6.78125 C 3.960938 -6.320312 3.765625 -5.707031 3.765625 -4.9375 L 3.765625 -4.75 L 7.875 -6.140625 C 7.570312 -7.023438 6.9375 -7.46875 5.96875 -7.46875 Z M 5.96875 -7.46875 "/></g></g></g><g fill="#f7faff" fill-opacity="1"><g transform="translate(180.759657, 90.348446)"><g><path d="M 11.609375 -9.359375 L 11.609375 0 L 8.609375 0 L 8.609375 -1.15625 C 7.703125 -0.21875 6.660156 0.25 5.484375 0.25 C 4.097656 0.25 2.972656 -0.160156 2.109375 -0.984375 C 1.242188 -1.804688 0.8125 -3.035156 0.8125 -4.671875 C 0.8125 -5.691406 1.019531 -6.59375 1.4375 -7.375 C 1.863281 -8.15625 2.425781 -8.757812 3.125 -9.1875 C 3.820312 -9.613281 4.570312 -9.828125 5.375 -9.828125 C 6.195312 -9.828125 6.847656 -9.703125 7.328125 -9.453125 C 7.816406 -9.203125 8.25 -8.847656 8.625 -8.390625 L 8.8125 -9.359375 Z M 6.34375 -2.1875 C 7.382812 -2.1875 8.140625 -2.65625 8.609375 -3.59375 L 8.609375 -5.890625 C 8.429688 -6.347656 8.128906 -6.710938 7.703125 -6.984375 C 7.285156 -7.253906 6.796875 -7.390625 6.234375 -7.390625 C 5.578125 -7.390625 5.015625 -7.144531 4.546875 -6.65625 C 4.085938 -6.164062 3.859375 -5.550781 3.859375 -4.8125 C 3.859375 -4.332031 3.96875 -3.890625 4.1875 -3.484375 C 4.414062 -3.078125 4.71875 -2.757812 5.09375 -2.53125 C 5.476562 -2.300781 5.894531 -2.1875 6.34375 -2.1875 Z M 6.34375 -2.1875 "/></g></g></g><g fill="#f7faff" fill-opacity="1"><g transform="translate(193.897471, 90.348446)"><g><path d="M 11.8125 -16.890625 L 11.8125 0 L 8.8125 0 L 8.8125 -0.984375 C 7.726562 -0.160156 6.570312 0.25 5.34375 0.25 C 4.476562 0.25 3.703125 0.046875 3.015625 -0.359375 C 2.328125 -0.773438 1.785156 -1.367188 1.390625 -2.140625 C 1.003906 -2.910156 0.8125 -3.816406 0.8125 -4.859375 C 0.8125 -5.890625 1.019531 -6.773438 1.4375 -7.515625 C 1.863281 -8.265625 2.445312 -8.835938 3.1875 -9.234375 C 3.925781 -9.628906 4.773438 -9.828125 5.734375 -9.828125 C 6.347656 -9.828125 6.925781 -9.726562 7.46875 -9.53125 C 8.007812 -9.34375 8.46875 -9.0625 8.84375 -8.6875 L 8.84375 -16.890625 Z M 6.34375 -2.265625 C 6.9375 -2.265625 7.429688 -2.378906 7.828125 -2.609375 C 8.234375 -2.847656 8.5625 -3.207031 8.8125 -3.6875 L 8.8125 -5.96875 C 8.644531 -6.425781 8.335938 -6.789062 7.890625 -7.0625 C 7.453125 -7.332031 6.9375 -7.46875 6.34375 -7.46875 C 5.664062 -7.46875 5.082031 -7.222656 4.59375 -6.734375 C 4.101562 -6.253906 3.859375 -5.644531 3.859375 -4.90625 C 3.859375 -4.414062 3.96875 -3.96875 4.1875 -3.5625 C 4.414062 -3.15625 4.71875 -2.835938 5.09375 -2.609375 C 5.476562 -2.378906 5.894531 -2.265625 6.34375 -2.265625 Z M 6.34375 -2.265625 "/></g></g></g><g fill="#f7faff" fill-opacity="1"><g transform="translate(207.249254, 90.348446)"><g><path d="M 11.21875 -9.359375 L 5.1875 4.5 L 2.296875 4.5 L 4.53125 -0.5 L 0.21875 -9.359375 L 3.578125 -9.359375 L 6.03125 -3.828125 L 8.515625 -9.359375 Z M 11.21875 -9.359375 "/></g></g></g><g fill="#f7faff" fill-opacity="1"><g transform="translate(218.675292, 90.348446)"><g/></g></g><g fill="#f7faff" fill-opacity="1"><g transform="translate(225.629344, 90.348446)"><g><path d="M 0.421875 2.65625 C 1.328125 2 1.78125 1.054688 1.78125 -0.171875 L 1.78125 -9.359375 L 4.78125 -9.359375 L 4.78125 0 C 4.78125 1.144531 4.570312 2.078125 4.15625 2.796875 C 3.75 3.523438 3.082031 4.097656 2.15625 4.515625 Z M 1.671875 -12.671875 C 1.671875 -13.109375 1.835938 -13.472656 2.171875 -13.765625 C 2.503906 -14.054688 2.882812 -14.203125 3.3125 -14.203125 C 3.726562 -14.203125 4.097656 -14.054688 4.421875 -13.765625 C 4.753906 -13.472656 4.921875 -13.109375 4.921875 -12.671875 C 4.921875 -12.242188 4.753906 -11.890625 4.421875 -11.609375 C 4.097656 -11.328125 3.726562 -11.1875 3.3125 -11.1875 C 2.882812 -11.1875 2.503906 -11.328125 2.171875 -11.609375 C 1.835938 -11.890625 1.671875 -12.242188 1.671875 -12.671875 Z M 1.671875 -12.671875 "/></g></g></g><g fill="#f7faff" fill-opacity="1"><g transform="translate(231.941488, 90.348446)"><g><path d="M 0.8125 -4.796875 C 0.8125 -5.753906 1.035156 -6.609375 1.484375 -7.359375 C 1.929688 -8.117188 2.566406 -8.710938 3.390625 -9.140625 C 4.210938 -9.578125 5.144531 -9.796875 6.1875 -9.796875 C 7.226562 -9.796875 8.144531 -9.578125 8.9375 -9.140625 C 9.726562 -8.710938 10.335938 -8.117188 10.765625 -7.359375 C 11.191406 -6.609375 11.40625 -5.753906 11.40625 -4.796875 C 11.40625 -3.835938 11.191406 -2.972656 10.765625 -2.203125 C 10.335938 -1.429688 9.726562 -0.828125 8.9375 -0.390625 C 8.144531 0.0351562 7.210938 0.25 6.140625 0.25 C 5.097656 0.25 4.171875 0.046875 3.359375 -0.359375 C 2.554688 -0.765625 1.929688 -1.34375 1.484375 -2.09375 C 1.035156 -2.851562 0.8125 -3.753906 0.8125 -4.796875 Z M 3.828125 -4.78125 C 3.828125 -4.03125 4.039062 -3.410156 4.46875 -2.921875 C 4.894531 -2.429688 5.4375 -2.1875 6.09375 -2.1875 C 6.78125 -2.1875 7.332031 -2.425781 7.75 -2.90625 C 8.175781 -3.394531 8.390625 -4.019531 8.390625 -4.78125 C 8.390625 -5.53125 8.175781 -6.144531 7.75 -6.625 C 7.332031 -7.113281 6.78125 -7.359375 6.09375 -7.359375 C 5.4375 -7.359375 4.894531 -7.113281 4.46875 -6.625 C 4.039062 -6.132812 3.828125 -5.519531 3.828125 -4.78125 Z M 3.828125 -4.78125 "/></g></g></g><g fill="#f7faff" fill-opacity="1"><g transform="translate(244.159223, 90.348446)"><g><path d="M 4.53125 -9.359375 L 4.53125 0 L 1.546875 0 L 1.546875 -9.359375 Z M 1.484375 -12.671875 C 1.484375 -13.109375 1.648438 -13.472656 1.984375 -13.765625 C 2.316406 -14.054688 2.695312 -14.203125 3.125 -14.203125 C 3.539062 -14.203125 3.910156 -14.054688 4.234375 -13.765625 C 4.566406 -13.472656 4.734375 -13.109375 4.734375 -12.671875 C 4.734375 -12.242188 4.566406 -11.890625 4.234375 -11.609375 C 3.910156 -11.328125 3.539062 -11.1875 3.125 -11.1875 C 2.695312 -11.1875 2.316406 -11.328125 1.984375 -11.609375 C 1.648438 -11.890625 1.484375 -12.242188 1.484375 -12.671875 Z M 1.484375 -12.671875 "/></g></g></g><g fill="#f7faff" fill-opacity="1"><g transform="translate(250.23599, 90.348446)"><g><path d="M 8.046875 -9.796875 C 8.929688 -9.796875 9.671875 -9.53125 10.265625 -9 C 10.859375 -8.476562 11.160156 -7.8125 11.171875 -7 L 11.171875 0 L 8.171875 0 L 8.171875 -5.890625 C 8.128906 -6.796875 7.675781 -7.25 6.8125 -7.25 C 6.125 -7.25 5.570312 -6.925781 5.15625 -6.28125 C 4.738281 -5.644531 4.53125 -4.820312 4.53125 -3.8125 L 4.53125 0 L 1.546875 0 L 1.546875 -9.359375 L 4.265625 -9.359375 L 4.46875 -7.859375 C 4.8125 -8.472656 5.285156 -8.945312 5.890625 -9.28125 C 6.503906 -9.625 7.222656 -9.796875 8.046875 -9.796875 Z M 8.046875 -9.796875 "/></g></g></g><g fill="#f7faff" fill-opacity="1"><g transform="translate(262.945854, 90.348446)"><g><path d="M 6.203125 -2.296875 C 6.804688 -2.296875 7.425781 -2.5 8.0625 -2.90625 L 9.390625 -0.6875 C 8.878906 -0.394531 8.335938 -0.164062 7.765625 0 C 7.203125 0.164062 6.660156 0.25 6.140625 0.25 C 5.023438 0.25 4.066406 0.0390625 3.265625 -0.375 C 2.460938 -0.789062 1.851562 -1.378906 1.4375 -2.140625 C 1.019531 -2.910156 0.8125 -3.789062 0.8125 -4.78125 C 0.8125 -5.6875 1.050781 -6.523438 1.53125 -7.296875 C 2.007812 -8.066406 2.660156 -8.675781 3.484375 -9.125 C 4.316406 -9.570312 5.222656 -9.796875 6.203125 -9.796875 C 7.546875 -9.796875 8.648438 -9.40625 9.515625 -8.625 C 10.378906 -7.84375 10.941406 -6.722656 11.203125 -5.265625 L 4.34375 -3.078125 C 4.800781 -2.554688 5.421875 -2.296875 6.203125 -2.296875 Z M 5.96875 -7.46875 C 5.300781 -7.46875 4.765625 -7.238281 4.359375 -6.78125 C 3.960938 -6.320312 3.765625 -5.707031 3.765625 -4.9375 L 3.765625 -4.75 L 7.875 -6.140625 C 7.570312 -7.023438 6.9375 -7.46875 5.96875 -7.46875 Z M 5.96875 -7.46875 "/></g></g></g><g fill="#f7faff" fill-opacity="1"><g transform="translate(274.778446, 90.348446)"><g><path d="M 11.8125 -16.890625 L 11.8125 0 L 8.8125 0 L 8.8125 -0.984375 C 7.726562 -0.160156 6.570312 0.25 5.34375 0.25 C 4.476562 0.25 3.703125 0.046875 3.015625 -0.359375 C 2.328125 -0.773438 1.785156 -1.367188 1.390625 -2.140625 C 1.003906 -2.910156 0.8125 -3.816406 0.8125 -4.859375 C 0.8125 -5.890625 1.019531 -6.773438 1.4375 -7.515625 C 1.863281 -8.265625 2.445312 -8.835938 3.1875 -9.234375 C 3.925781 -9.628906 4.773438 -9.828125 5.734375 -9.828125 C 6.347656 -9.828125 6.925781 -9.726562 7.46875 -9.53125 C 8.007812 -9.34375 8.46875 -9.0625 8.84375 -8.6875 L 8.84375 -16.890625 Z M 6.34375 -2.265625 C 6.9375 -2.265625 7.429688 -2.378906 7.828125 -2.609375 C 8.234375 -2.847656 8.5625 -3.207031 8.8125 -3.6875 L 8.8125 -5.96875 C 8.644531 -6.425781 8.335938 -6.789062 7.890625 -7.0625 C 7.453125 -7.332031 6.9375 -7.46875 6.34375 -7.46875 C 5.664062 -7.46875 5.082031 -7.222656 4.59375 -6.734375 C 4.101562 -6.253906 3.859375 -5.644531 3.859375 -4.90625 C 3.859375 -4.414062 3.96875 -3.96875 4.1875 -3.5625 C 4.414062 -3.15625 4.71875 -2.835938 5.09375 -2.609375 C 5.476562 -2.378906 5.894531 -2.265625 6.34375 -2.265625 Z M 6.34375 -2.265625 "/></g></g></g><g clip-path="url(#662422bca8)"><path fill="#f7faff" d="M 88.574219 23.683594 C 89.800781 23.683594 91.507812 23.785156 93.691406 23.992188 C 99.972656 25.207031 103.042969 28.039062 102.910156 32.488281 C 102.351562 35.109375 101.152344 36.769531 99.316406 37.46875 C 99.164062 37.523438 99.03125 37.613281 98.914062 37.726562 C 98.222656 38.203125 95.230469 38.757812 89.945312 39.386719 C 88.847656 39.496094 87.523438 39.5625 85.96875 39.585938 C 84.691406 39.597656 83.378906 39.605469 82.019531 39.605469 C 77.84375 39.605469 73.277344 39.542969 68.3125 39.417969 C 68.300781 39.417969 68.292969 39.417969 68.28125 39.417969 C 68.265625 39.417969 68.246094 39.417969 68.226562 39.421875 C 60.503906 39.792969 55.613281 39.976562 53.550781 39.976562 C 53.40625 39.976562 53.277344 39.976562 53.160156 39.972656 L 43.878906 39.617188 C 41.222656 39.242188 35.769531 38.710938 27.511719 38.03125 C 27.480469 38.03125 27.449219 38.027344 27.417969 38.027344 C 27.414062 38.027344 27.410156 38.027344 27.40625 38.027344 C 27.398438 38.027344 27.394531 38.027344 27.386719 38.027344 C 26.210938 38.027344 25.167969 36.992188 24.257812 34.917969 C 24.234375 34.867188 24.207031 34.816406 24.175781 34.765625 C 23.132812 33.117188 22.835938 31.414062 23.277344 29.648438 C 23.671875 28.304688 24.335938 27.421875 25.265625 27 C 25.277344 26.992188 25.292969 26.988281 25.308594 26.980469 C 27.597656 25.824219 29.289062 25.246094 30.375 25.246094 C 30.503906 25.246094 30.628906 25.253906 30.742188 25.269531 C 30.796875 25.277344 30.851562 25.28125 30.90625 25.28125 C 31.320312 25.28125 31.699219 25.054688 31.898438 24.699219 C 37.292969 24.390625 41.558594 24.226562 44.695312 24.214844 L 68.941406 24.214844 C 68.949219 24.214844 68.960938 24.214844 68.972656 24.214844 L 87.636719 23.707031 C 87.648438 23.707031 87.660156 23.707031 87.671875 23.707031 C 87.9375 23.691406 88.238281 23.683594 88.574219 23.683594 Z M 88.558594 21.394531 C 88.1875 21.394531 87.855469 21.402344 87.558594 21.417969 L 68.925781 21.921875 L 44.691406 21.925781 L 44.6875 21.925781 C 40.929688 21.941406 35.589844 22.167969 28.667969 22.601562 C 28.144531 22.632812 27.730469 23.015625 27.625 23.503906 C 26.640625 23.832031 25.535156 24.304688 24.304688 24.925781 C 22.746094 25.636719 21.671875 27.003906 21.085938 29.023438 C 21.085938 29.035156 21.082031 29.046875 21.078125 29.058594 C 20.46875 31.441406 20.84375 33.730469 22.210938 35.921875 L 22.207031 35.921875 C 23.515625 38.851562 25.234375 40.316406 27.375 40.320312 C 35.621094 41 41.035156 41.523438 43.617188 41.894531 C 43.65625 41.898438 43.695312 41.902344 43.734375 41.90625 L 53.085938 42.261719 C 53.09375 42.261719 53.101562 42.265625 53.109375 42.265625 C 53.234375 42.265625 53.375 42.265625 53.53125 42.265625 C 55.640625 42.265625 60.5625 42.082031 68.296875 41.710938 C 73.261719 41.832031 77.839844 41.894531 82.019531 41.894531 C 83.386719 41.894531 84.710938 41.886719 85.996094 41.875 L 86 41.875 C 87.625 41.851562 89.019531 41.78125 90.183594 41.664062 C 90.191406 41.664062 90.199219 41.664062 90.207031 41.664062 C 95.929688 40.980469 99.285156 40.28125 100.265625 39.570312 C 100.28125 39.558594 100.296875 39.546875 100.316406 39.53125 C 102.847656 38.492188 104.460938 36.269531 105.160156 32.855469 C 105.171875 32.792969 105.179688 32.734375 105.183594 32.671875 C 105.414062 26.839844 101.707031 23.195312 94.066406 21.730469 C 94.03125 21.722656 93.996094 21.71875 93.957031 21.714844 C 91.683594 21.5 89.882812 21.394531 88.558594 21.394531 Z M 88.558594 21.394531 " fill-opacity="1" fill-rule="nonzero"/></g><path fill="#f7faff" d="M 23.132812 32.316406 C 23.289062 32.425781 23.402344 32.546875 23.472656 32.6875 C 23.386719 32.542969 23.273438 32.414062 23.132812 32.316406 Z M 30.542969 22.226562 C 26.875 22.226562 24.039062 23.613281 22.035156 26.382812 C 20.9375 27.558594 20.523438 29.003906 20.796875 30.71875 C 20.800781 30.722656 20.800781 30.726562 20.800781 30.730469 C 21.0625 32.257812 21.246094 33.191406 21.359375 33.527344 C 21.394531 33.636719 21.441406 33.738281 21.496094 33.832031 C 22.128906 35.117188 22.667969 35.980469 23.109375 36.417969 C 23.332031 36.636719 23.621094 36.746094 23.910156 36.746094 C 24.203125 36.746094 24.5 36.632812 24.722656 36.40625 C 25.164062 35.953125 25.15625 35.230469 24.707031 34.785156 C 24.441406 34.523438 24.042969 33.847656 23.507812 32.753906 C 23.507812 32.75 23.503906 32.746094 23.503906 32.742188 C 23.421875 32.457031 23.269531 31.660156 23.046875 30.355469 C 22.890625 29.363281 23.117188 28.550781 23.730469 27.914062 C 23.769531 27.871094 23.808594 27.828125 23.839844 27.78125 C 25.390625 25.609375 27.648438 24.523438 30.613281 24.523438 C 31.417969 24.523438 32.277344 24.605469 33.191406 24.765625 C 33.257812 24.777344 33.324219 24.785156 33.390625 24.785156 C 33.933594 24.785156 34.414062 24.394531 34.511719 23.835938 C 34.617188 23.214844 34.203125 22.621094 33.585938 22.511719 C 32.515625 22.324219 31.5 22.226562 30.542969 22.226562 Z M 30.542969 22.226562 " fill-opacity="1" fill-rule="nonzero"/><path fill="#f7faff" d="M 88.574219 23.558594 C 88.234375 23.558594 87.933594 23.566406 87.664062 23.582031 C 87.65625 23.582031 87.644531 23.582031 87.632812 23.582031 L 68.96875 24.089844 C 68.957031 24.089844 68.949219 24.089844 68.941406 24.089844 L 44.699219 24.09375 C 44.695312 24.09375 44.695312 24.09375 44.695312 24.09375 C 41.980469 24.101562 38.425781 24.226562 34.027344 24.457031 C 34.003906 24.460938 33.984375 24.46875 33.964844 24.480469 C 33.796875 24.59375 33.597656 24.660156 33.390625 24.660156 C 33.332031 24.660156 33.273438 24.65625 33.214844 24.644531 L 33.210938 24.644531 C 32.992188 24.605469 32.773438 24.570312 32.558594 24.542969 C 32.550781 24.542969 32.542969 24.539062 32.539062 24.539062 C 32.535156 24.539062 32.535156 24.539062 32.53125 24.539062 C 32.320312 24.550781 32.105469 24.566406 31.890625 24.578125 C 31.84375 24.578125 31.808594 24.605469 31.789062 24.644531 C 31.609375 24.957031 31.273438 25.160156 30.90625 25.160156 C 30.859375 25.160156 30.808594 25.15625 30.757812 25.148438 C 30.640625 25.132812 30.511719 25.121094 30.375 25.121094 C 29.269531 25.121094 27.558594 25.703125 25.253906 26.871094 C 25.238281 26.875 25.226562 26.882812 25.214844 26.886719 C 24.25 27.324219 23.566406 28.234375 23.160156 29.613281 C 23.160156 29.621094 23.160156 29.625 23.15625 29.628906 C 23.070312 29.976562 23.011719 30.324219 22.980469 30.667969 L 22.980469 30.671875 C 22.980469 30.683594 22.980469 30.695312 22.984375 30.710938 C 23.175781 31.824219 23.308594 32.511719 23.382812 32.777344 C 23.386719 32.789062 23.390625 32.796875 23.394531 32.804688 C 23.398438 32.808594 23.398438 32.808594 23.398438 32.808594 C 23.9375 33.914062 24.347656 34.601562 24.621094 34.875 C 24.957031 35.207031 25.015625 35.714844 24.792969 36.109375 C 24.769531 36.148438 24.769531 36.195312 24.792969 36.234375 C 24.792969 36.234375 24.796875 36.238281 24.796875 36.242188 C 25.570312 37.515625 26.433594 38.152344 27.386719 38.152344 C 27.394531 38.152344 27.402344 38.152344 27.40625 38.152344 C 27.410156 38.152344 27.417969 38.152344 27.417969 38.152344 C 27.445312 38.152344 27.472656 38.152344 27.5 38.15625 C 35.757812 38.835938 41.210938 39.363281 43.863281 39.742188 C 43.867188 39.742188 43.871094 39.742188 43.878906 39.742188 L 53.15625 40.097656 C 53.15625 40.097656 53.15625 40.097656 53.160156 40.097656 C 53.277344 40.101562 53.40625 40.101562 53.550781 40.101562 C 55.613281 40.101562 60.507812 39.914062 68.234375 39.542969 C 68.25 39.542969 68.265625 39.542969 68.28125 39.542969 C 68.292969 39.542969 68.296875 39.542969 68.308594 39.542969 C 73.273438 39.667969 77.84375 39.726562 82.019531 39.726562 C 83.378906 39.726562 84.695312 39.722656 85.96875 39.707031 C 85.96875 39.707031 85.972656 39.707031 85.972656 39.707031 C 87.527344 39.683594 88.855469 39.621094 89.957031 39.511719 L 89.953125 39.511719 L 89.960938 39.511719 C 95.242188 38.878906 98.246094 38.320312 98.972656 37.835938 C 98.984375 37.828125 98.992188 37.820312 99.003906 37.8125 C 99.105469 37.710938 99.226562 37.632812 99.359375 37.582031 C 101.234375 36.871094 102.457031 35.1875 103.027344 32.53125 L 103.023438 32.53125 C 103.03125 32.519531 103.03125 32.507812 103.03125 32.492188 C 103.167969 27.972656 100.066406 25.101562 93.722656 23.871094 C 93.71875 23.871094 93.710938 23.867188 93.703125 23.867188 C 91.515625 23.664062 89.804688 23.558594 88.574219 23.558594 Z M 88.574219 23.558594 " fill-opacity="1" fill-rule="nonzero"/><g clip-path="url(#1551793185)"><path fill="#f7faff" d="M 86.59375 46.628906 C 87.824219 46.628906 89.53125 46.730469 91.714844 46.9375 C 97.992188 48.148438 101.066406 50.984375 100.933594 55.433594 L 100.929688 55.433594 C 100.375 58.054688 99.175781 59.714844 97.335938 60.414062 C 97.1875 60.46875 97.050781 60.558594 96.9375 60.671875 C 96.242188 61.148438 93.253906 61.699219 87.96875 62.332031 C 86.871094 62.441406 85.542969 62.507812 83.988281 62.53125 C 82.714844 62.542969 81.398438 62.550781 80.042969 62.550781 C 75.867188 62.550781 71.296875 62.488281 66.332031 62.363281 C 66.324219 62.363281 66.3125 62.363281 66.304688 62.363281 C 66.285156 62.363281 66.269531 62.363281 66.25 62.363281 C 58.527344 62.734375 53.636719 62.921875 51.574219 62.921875 C 51.429688 62.921875 51.296875 62.921875 51.183594 62.917969 L 41.902344 62.5625 C 39.246094 62.1875 33.789062 61.65625 25.535156 60.976562 C 25.503906 60.976562 25.472656 60.972656 25.441406 60.972656 C 25.4375 60.972656 25.433594 60.972656 25.429688 60.972656 C 25.421875 60.972656 25.414062 60.972656 25.410156 60.972656 C 24.234375 60.972656 23.191406 59.9375 22.28125 57.863281 C 22.257812 57.808594 22.230469 57.757812 22.199219 57.710938 C 21.15625 56.0625 20.855469 54.355469 21.300781 52.59375 C 21.695312 51.25 22.355469 50.367188 23.285156 49.945312 C 23.300781 49.9375 23.316406 49.933594 23.332031 49.925781 C 25.621094 48.769531 27.308594 48.191406 28.398438 48.191406 C 28.527344 48.191406 28.648438 48.199219 28.761719 48.214844 C 28.820312 48.222656 28.875 48.226562 28.929688 48.226562 C 29.34375 48.226562 29.722656 48 29.917969 47.644531 C 35.3125 47.335938 39.578125 47.171875 42.71875 47.160156 L 66.964844 47.160156 C 66.972656 47.160156 66.984375 47.15625 66.992188 47.15625 L 85.660156 46.652344 C 85.671875 46.652344 85.683594 46.652344 85.695312 46.652344 C 85.960938 46.636719 86.257812 46.628906 86.59375 46.628906 Z M 86.578125 44.339844 C 86.210938 44.339844 85.878906 44.347656 85.582031 44.363281 L 66.949219 44.867188 L 42.714844 44.871094 L 42.710938 44.871094 C 38.949219 44.886719 33.609375 45.109375 26.691406 45.546875 C 26.167969 45.578125 25.75 45.960938 25.648438 46.449219 C 24.664062 46.773438 23.558594 47.25 22.328125 47.867188 C 20.769531 48.582031 19.695312 49.949219 19.109375 51.96875 C 19.105469 51.980469 19.101562 51.992188 19.101562 52.003906 C 18.492188 54.386719 18.867188 56.675781 20.230469 58.867188 C 21.535156 61.792969 23.257812 63.261719 25.394531 63.261719 C 33.640625 63.941406 39.054688 64.46875 41.636719 64.839844 C 41.675781 64.84375 41.714844 64.847656 41.757812 64.851562 L 51.109375 65.207031 C 51.117188 65.207031 51.125 65.207031 51.132812 65.207031 C 51.257812 65.210938 51.398438 65.210938 51.554688 65.210938 C 53.664062 65.210938 58.585938 65.027344 66.316406 64.65625 C 71.285156 64.777344 75.859375 64.839844 80.042969 64.839844 C 81.410156 64.839844 82.734375 64.832031 84.015625 64.820312 L 84.023438 64.820312 C 85.648438 64.792969 87.042969 64.726562 88.203125 64.609375 C 88.210938 64.609375 88.21875 64.609375 88.226562 64.609375 C 93.953125 63.921875 97.304688 63.226562 98.285156 62.515625 C 98.304688 62.503906 98.320312 62.492188 98.339844 62.476562 L 98.335938 62.476562 C 100.867188 61.4375 102.484375 59.214844 103.183594 55.800781 C 103.195312 55.738281 103.203125 55.675781 103.207031 55.613281 C 103.4375 49.785156 99.730469 46.140625 92.085938 44.675781 C 92.050781 44.667969 92.015625 44.664062 91.980469 44.660156 C 89.707031 44.445312 87.90625 44.339844 86.578125 44.339844 Z M 86.578125 44.339844 " fill-opacity="1" fill-rule="nonzero"/></g><g clip-path="url(#c57564b96e)"><path fill="#f7faff" d="M 21.15625 55.261719 C 21.308594 55.371094 21.421875 55.492188 21.496094 55.632812 C 21.410156 55.484375 21.292969 55.359375 21.15625 55.261719 Z M 28.5625 45.171875 C 24.898438 45.171875 22.0625 46.558594 20.058594 49.328125 C 18.957031 50.5 18.546875 51.945312 18.820312 53.664062 C 18.820312 53.667969 18.820312 53.671875 18.824219 53.675781 C 19.082031 55.203125 19.269531 56.136719 19.382812 56.472656 C 19.417969 56.582031 19.464844 56.683594 19.519531 56.777344 C 20.152344 58.0625 20.691406 58.925781 21.132812 59.363281 C 21.355469 59.582031 21.644531 59.691406 21.933594 59.691406 C 22.226562 59.691406 22.519531 59.578125 22.742188 59.351562 C 23.183594 58.898438 23.179688 58.175781 22.730469 57.730469 C 22.464844 57.46875 22.0625 56.789062 21.53125 55.699219 C 21.527344 55.695312 21.527344 55.691406 21.523438 55.6875 C 21.445312 55.402344 21.292969 54.605469 21.070312 53.300781 C 20.910156 52.308594 21.140625 51.492188 21.753906 50.855469 C 21.792969 50.816406 21.828125 50.773438 21.863281 50.726562 C 23.410156 48.554688 25.667969 47.46875 28.632812 47.46875 C 29.441406 47.46875 30.300781 47.550781 31.214844 47.710938 C 31.28125 47.722656 31.347656 47.730469 31.410156 47.730469 C 31.953125 47.730469 32.433594 47.335938 32.53125 46.78125 C 32.640625 46.160156 32.226562 45.566406 31.609375 45.457031 C 30.535156 45.265625 29.523438 45.171875 28.5625 45.171875 Z M 28.5625 45.171875 " fill-opacity="1" fill-rule="nonzero"/></g><path fill="#f7faff" d="M 86.59375 46.503906 C 86.257812 46.503906 85.953125 46.511719 85.6875 46.527344 C 85.675781 46.527344 85.667969 46.527344 85.65625 46.527344 L 66.992188 47.035156 L 66.988281 47.035156 C 66.980469 47.035156 66.972656 47.035156 66.964844 47.035156 L 42.714844 47.035156 C 40.003906 47.046875 36.449219 47.171875 32.050781 47.402344 C 32.027344 47.40625 32.003906 47.414062 31.988281 47.425781 C 31.820312 47.539062 31.621094 47.605469 31.410156 47.605469 C 31.355469 47.605469 31.292969 47.601562 31.234375 47.589844 C 31.011719 47.550781 30.796875 47.515625 30.578125 47.488281 C 30.574219 47.484375 30.566406 47.484375 30.558594 47.484375 C 30.558594 47.484375 30.554688 47.484375 30.554688 47.484375 C 30.34375 47.496094 30.128906 47.507812 29.914062 47.523438 C 29.867188 47.523438 29.828125 47.550781 29.808594 47.589844 C 29.632812 47.902344 29.296875 48.105469 28.929688 48.105469 C 28.878906 48.105469 28.832031 48.101562 28.78125 48.09375 C 28.660156 48.074219 28.535156 48.066406 28.398438 48.066406 C 27.289062 48.066406 25.582031 48.648438 23.273438 49.8125 C 23.261719 49.820312 23.25 49.828125 23.234375 49.832031 C 22.273438 50.269531 21.585938 51.179688 21.183594 52.558594 C 21.183594 52.5625 21.179688 52.566406 21.179688 52.574219 C 21.09375 52.921875 21.035156 53.269531 21.003906 53.613281 L 21.003906 53.617188 C 21.003906 53.628906 21.003906 53.640625 21.007812 53.652344 C 21.199219 54.769531 21.332031 55.457031 21.40625 55.722656 C 21.410156 55.730469 21.414062 55.742188 21.417969 55.75 C 21.417969 55.753906 21.417969 55.753906 21.421875 55.753906 C 21.960938 56.859375 22.367188 57.546875 22.644531 57.820312 C 22.980469 58.152344 23.039062 58.660156 22.816406 59.054688 C 22.792969 59.09375 22.792969 59.140625 22.816406 59.175781 C 22.816406 59.179688 22.820312 59.183594 22.820312 59.1875 C 23.59375 60.460938 24.457031 61.097656 25.410156 61.097656 C 25.414062 61.097656 25.421875 61.097656 25.429688 61.097656 C 25.433594 61.097656 25.4375 61.097656 25.441406 61.097656 C 25.46875 61.097656 25.496094 61.097656 25.523438 61.101562 C 33.777344 61.78125 39.230469 62.308594 41.882812 62.6875 C 41.890625 62.6875 41.894531 62.6875 41.902344 62.6875 L 51.175781 63.042969 C 51.179688 63.042969 51.179688 63.042969 51.183594 63.042969 C 51.300781 63.042969 51.429688 63.046875 51.574219 63.046875 C 53.636719 63.046875 58.53125 62.859375 66.257812 62.488281 C 66.273438 62.488281 66.289062 62.488281 66.304688 62.488281 C 66.3125 62.488281 66.320312 62.488281 66.328125 62.488281 C 71.296875 62.609375 75.867188 62.671875 80.042969 62.671875 C 81.398438 62.671875 82.714844 62.667969 83.992188 62.652344 C 83.992188 62.652344 83.992188 62.652344 83.996094 62.652344 L 83.992188 62.652344 C 85.550781 62.628906 86.878906 62.5625 87.976562 62.457031 L 87.980469 62.457031 C 93.261719 61.824219 96.269531 61.265625 96.996094 60.777344 C 97.007812 60.773438 97.015625 60.765625 97.023438 60.757812 C 97.125 60.65625 97.246094 60.578125 97.382812 60.527344 C 99.257812 59.816406 100.480469 58.132812 101.046875 55.476562 C 101.050781 55.464844 101.054688 55.453125 101.054688 55.4375 C 101.191406 50.917969 98.089844 48.042969 91.746094 46.816406 C 91.738281 46.8125 91.734375 46.8125 91.726562 46.8125 C 89.539062 46.605469 87.828125 46.503906 86.59375 46.503906 Z M 86.59375 46.503906 " fill-opacity="1" fill-rule="nonzero"/><g clip-path="url(#f0562c521e)"><path fill="#f7faff" d="M 88.226562 72.253906 C 89.457031 72.253906 91.164062 72.355469 93.347656 72.5625 C 99.625 73.773438 102.699219 76.609375 102.566406 81.058594 C 102.007812 83.679688 100.808594 85.339844 98.96875 86.039062 C 98.820312 86.09375 98.683594 86.183594 98.570312 86.296875 C 97.875 86.773438 94.886719 87.324219 89.601562 87.957031 C 88.503906 88.066406 87.179688 88.132812 85.621094 88.15625 C 84.347656 88.167969 83.03125 88.175781 81.675781 88.175781 C 77.5 88.175781 72.929688 88.113281 67.964844 87.988281 C 67.957031 87.988281 67.945312 87.988281 67.9375 87.988281 C 67.917969 87.988281 67.902344 87.988281 67.882812 87.988281 C 60.160156 88.359375 55.269531 88.546875 53.207031 88.546875 C 53.0625 88.546875 52.929688 88.546875 52.816406 88.542969 L 43.535156 88.1875 C 40.878906 87.8125 35.421875 87.28125 27.167969 86.601562 C 27.136719 86.601562 27.105469 86.597656 27.074219 86.597656 C 27.070312 86.597656 27.066406 86.597656 27.0625 86.597656 C 27.054688 86.597656 27.046875 86.597656 27.042969 86.597656 C 25.867188 86.597656 24.824219 85.5625 23.914062 83.488281 C 23.890625 83.433594 23.863281 83.382812 23.832031 83.335938 C 22.789062 81.6875 22.488281 79.980469 22.933594 78.21875 C 23.328125 76.875 23.988281 75.992188 24.917969 75.570312 C 24.933594 75.5625 24.949219 75.558594 24.964844 75.550781 C 27.253906 74.394531 28.941406 73.816406 30.03125 73.816406 C 30.160156 73.816406 30.28125 73.824219 30.394531 73.839844 C 30.453125 73.847656 30.507812 73.851562 30.5625 73.851562 C 30.976562 73.851562 31.355469 73.625 31.550781 73.269531 C 36.945312 72.960938 41.210938 72.796875 44.351562 72.785156 L 68.597656 72.785156 C 68.605469 72.785156 68.617188 72.78125 68.625 72.78125 L 87.292969 72.277344 C 87.304688 72.277344 87.316406 72.277344 87.328125 72.277344 C 87.59375 72.261719 87.890625 72.253906 88.226562 72.253906 Z M 88.210938 69.964844 C 87.84375 69.964844 87.511719 69.972656 87.214844 69.988281 L 68.582031 70.492188 L 44.347656 70.496094 L 44.34375 70.496094 C 40.582031 70.511719 35.242188 70.734375 28.324219 71.171875 C 27.800781 71.203125 27.382812 71.585938 27.28125 72.074219 C 26.296875 72.398438 25.191406 72.875 23.960938 73.492188 C 22.402344 74.207031 21.328125 75.574219 20.742188 77.59375 C 20.738281 77.605469 20.734375 77.617188 20.734375 77.628906 C 20.125 80.011719 20.5 82.300781 21.863281 84.492188 C 23.167969 87.417969 24.890625 88.886719 27.027344 88.886719 C 35.273438 89.566406 40.6875 90.09375 43.269531 90.464844 C 43.308594 90.46875 43.347656 90.472656 43.390625 90.476562 L 52.742188 90.832031 C 52.75 90.832031 52.757812 90.832031 52.765625 90.832031 C 52.890625 90.835938 53.03125 90.835938 53.1875 90.835938 C 55.296875 90.835938 60.21875 90.652344 67.949219 90.28125 C 72.917969 90.402344 77.492188 90.464844 81.675781 90.464844 C 83.042969 90.464844 84.367188 90.457031 85.648438 90.445312 L 85.65625 90.445312 C 87.28125 90.417969 88.675781 90.351562 89.835938 90.234375 C 89.84375 90.234375 89.851562 90.234375 89.859375 90.234375 C 95.585938 89.546875 98.9375 88.851562 99.917969 88.140625 C 99.9375 88.128906 99.953125 88.117188 99.972656 88.101562 L 99.96875 88.101562 C 102.5 87.0625 104.117188 84.839844 104.816406 81.425781 C 104.828125 81.363281 104.835938 81.300781 104.839844 81.238281 C 105.070312 75.410156 101.363281 71.765625 93.71875 70.300781 C 93.683594 70.292969 93.648438 70.289062 93.613281 70.285156 C 91.339844 70.070312 89.539062 69.964844 88.210938 69.964844 Z M 88.210938 69.964844 " fill-opacity="1" fill-rule="nonzero"/></g><path fill="#f7faff" d="M 22.789062 80.886719 C 22.945312 80.996094 23.054688 81.117188 23.128906 81.257812 C 23.042969 81.109375 22.925781 80.984375 22.789062 80.886719 Z M 30.195312 70.796875 C 26.53125 70.796875 23.695312 72.183594 21.691406 74.953125 C 20.589844 76.125 20.179688 77.570312 20.453125 79.289062 C 20.453125 79.292969 20.453125 79.296875 20.457031 79.300781 C 20.714844 80.828125 20.902344 81.761719 21.015625 82.097656 C 21.050781 82.207031 21.097656 82.308594 21.152344 82.402344 C 21.785156 83.6875 22.324219 84.550781 22.765625 84.988281 C 22.988281 85.207031 23.277344 85.316406 23.566406 85.316406 C 23.859375 85.316406 24.152344 85.203125 24.375 84.976562 C 24.816406 84.523438 24.8125 83.800781 24.363281 83.355469 C 24.097656 83.09375 23.695312 82.414062 23.164062 81.324219 C 23.160156 81.320312 23.160156 81.316406 23.15625 81.3125 C 23.078125 81.027344 22.925781 80.230469 22.703125 78.925781 C 22.542969 77.933594 22.773438 77.117188 23.386719 76.480469 C 23.425781 76.441406 23.460938 76.398438 23.496094 76.351562 C 25.042969 74.179688 27.300781 73.09375 30.265625 73.09375 C 31.074219 73.09375 31.933594 73.175781 32.847656 73.335938 C 32.914062 73.347656 32.980469 73.355469 33.042969 73.355469 C 33.585938 73.355469 34.066406 72.960938 34.164062 72.40625 C 34.273438 71.785156 33.859375 71.191406 33.242188 71.082031 C 32.167969 70.890625 31.15625 70.796875 30.195312 70.796875 Z M 30.195312 70.796875 " fill-opacity="1" fill-rule="nonzero"/><path fill="#f7faff" d="M 88.226562 72.128906 C 87.890625 72.128906 87.585938 72.136719 87.320312 72.152344 C 87.308594 72.152344 87.300781 72.152344 87.289062 72.152344 L 68.625 72.660156 L 68.621094 72.660156 C 68.613281 72.660156 68.605469 72.660156 68.597656 72.660156 L 44.347656 72.660156 C 41.636719 72.671875 38.082031 72.796875 33.683594 73.027344 C 33.660156 73.03125 33.636719 73.039062 33.621094 73.050781 C 33.453125 73.164062 33.253906 73.230469 33.042969 73.230469 C 32.988281 73.230469 32.925781 73.226562 32.867188 73.214844 C 32.644531 73.175781 32.429688 73.140625 32.214844 73.113281 L 32.210938 73.113281 C 32.207031 73.109375 32.199219 73.109375 32.191406 73.109375 C 32.191406 73.109375 32.1875 73.109375 32.1875 73.109375 C 31.976562 73.121094 31.761719 73.132812 31.546875 73.148438 C 31.5 73.148438 31.460938 73.175781 31.441406 73.214844 C 31.265625 73.527344 30.929688 73.730469 30.5625 73.730469 C 30.511719 73.730469 30.464844 73.726562 30.414062 73.71875 C 30.292969 73.699219 30.167969 73.691406 30.03125 73.691406 C 28.921875 73.691406 27.214844 74.273438 24.90625 75.4375 C 24.894531 75.445312 24.882812 75.453125 24.867188 75.457031 C 23.90625 75.894531 23.21875 76.804688 22.816406 78.183594 C 22.816406 78.1875 22.8125 78.191406 22.8125 78.199219 C 22.726562 78.546875 22.667969 78.894531 22.636719 79.238281 L 22.636719 79.242188 C 22.636719 79.253906 22.636719 79.265625 22.640625 79.277344 C 22.832031 80.394531 22.964844 81.082031 23.039062 81.347656 C 23.042969 81.355469 23.046875 81.367188 23.050781 81.375 C 23.050781 81.378906 23.050781 81.378906 23.054688 81.378906 C 23.59375 82.484375 24 83.171875 24.277344 83.445312 C 24.613281 83.777344 24.671875 84.285156 24.449219 84.679688 C 24.425781 84.71875 24.425781 84.765625 24.449219 84.800781 C 24.449219 84.804688 24.453125 84.808594 24.453125 84.8125 C 25.226562 86.085938 26.089844 86.722656 27.042969 86.722656 C 27.046875 86.722656 27.054688 86.722656 27.0625 86.722656 C 27.066406 86.722656 27.070312 86.722656 27.074219 86.722656 C 27.101562 86.722656 27.128906 86.722656 27.15625 86.726562 C 35.410156 87.40625 40.863281 87.933594 43.515625 88.3125 C 43.523438 88.3125 43.527344 88.3125 43.535156 88.3125 L 52.808594 88.667969 C 52.8125 88.667969 52.8125 88.667969 52.816406 88.667969 C 52.933594 88.667969 53.0625 88.671875 53.207031 88.671875 C 55.269531 88.671875 60.164062 88.484375 67.890625 88.113281 C 67.90625 88.113281 67.921875 88.113281 67.9375 88.113281 C 67.945312 88.113281 67.953125 88.113281 67.960938 88.113281 C 72.929688 88.234375 77.5 88.296875 81.675781 88.296875 C 83.03125 88.296875 84.347656 88.292969 85.625 88.277344 C 85.625 88.277344 85.625 88.277344 85.628906 88.277344 L 85.625 88.277344 C 87.183594 88.253906 88.511719 88.1875 89.609375 88.082031 L 89.613281 88.082031 C 94.894531 87.449219 97.902344 86.890625 98.628906 86.402344 C 98.640625 86.398438 98.648438 86.390625 98.65625 86.382812 C 98.757812 86.28125 98.878906 86.203125 99.015625 86.152344 C 100.890625 85.441406 102.113281 83.757812 102.679688 81.101562 C 102.683594 81.089844 102.6875 81.078125 102.6875 81.0625 C 102.824219 76.542969 99.722656 73.667969 93.378906 72.441406 C 93.371094 72.4375 93.367188 72.4375 93.359375 72.4375 C 91.171875 72.230469 89.460938 72.128906 88.226562 72.128906 Z M 88.226562 72.128906 " fill-opacity="1" fill-rule="nonzero"/></svg>