<svg xmlns="http://www.w3.org/2000/svg" xmlns:xlink="http://www.w3.org/1999/xlink" width="400" zoomAndPan="magnify" viewBox="0 0 300 112.499997" height="150" preserveAspectRatio="xMidYMid meet" version="1.0"><defs><g/><clipPath id="528e2ce1c6"><path d="M 0.664062 0 L 299.335938 0 L 299.335938 112.003906 L 0.664062 112.003906 Z M 0.664062 0 " clip-rule="nonzero"/></clipPath><clipPath id="95ad564f58"><path d="M 12 18.519531 L 113.414062 18.519531 L 113.414062 93.1875 L 12 93.1875 Z M 12 18.519531 " clip-rule="nonzero"/></clipPath></defs><g clip-path="url(#528e2ce1c6)"><path fill="#ffffff" d="M 0.664062 0 L 299.335938 0 L 299.335938 119.46875 L 0.664062 119.46875 Z M 0.664062 0 " fill-opacity="1" fill-rule="nonzero"/><path fill="#ffffff" d="M 0.664062 0 L 299.335938 0 L 299.335938 112.003906 L 0.664062 112.003906 Z M 0.664062 0 " fill-opacity="1" fill-rule="nonzero"/><path fill="#3787ff" d="M 0.664062 0 L 299.335938 0 L 299.335938 112.003906 L 0.664062 112.003906 Z M 0.664062 0 " fill-opacity="1" fill-rule="nonzero"/></g><g fill="#f7faff" fill-opacity="1"><g transform="translate(129.332715, 30.613937)"><g><path d="M 6.53125 -3.3125 C 6.53125 -1.976562 6.257812 -0.820312 5.71875 0.15625 C 5.1875 1.132812 4.4375 1.882812 3.46875 2.40625 C 2.5 2.9375 1.378906 3.226562 0.109375 3.28125 L 0.109375 0.25 C 2.304688 0.132812 3.40625 -1.070312 3.40625 -3.375 L 3.40625 -15.75 L 6.53125 -15.75 Z M 6.53125 -3.3125 "/></g></g></g><g fill="#f7faff" fill-opacity="1"><g transform="translate(137.891546, 30.613937)"><g><path d="M 0.8125 -4.796875 C 0.8125 -5.753906 1.035156 -6.609375 1.484375 -7.359375 C 1.929688 -8.117188 2.566406 -8.710938 3.390625 -9.140625 C 4.210938 -9.578125 5.144531 -9.796875 6.1875 -9.796875 C 7.226562 -9.796875 8.144531 -9.578125 8.9375 -9.140625 C 9.726562 -8.710938 10.335938 -8.117188 10.765625 -7.359375 C 11.191406 -6.609375 11.40625 -5.753906 11.40625 -4.796875 C 11.40625 -3.835938 11.191406 -2.972656 10.765625 -2.203125 C 10.335938 -1.429688 9.726562 -0.828125 8.9375 -0.390625 C 8.144531 0.0351562 7.210938 0.25 6.140625 0.25 C 5.097656 0.25 4.171875 0.046875 3.359375 -0.359375 C 2.554688 -0.765625 1.929688 -1.34375 1.484375 -2.09375 C 1.035156 -2.851562 0.8125 -3.753906 0.8125 -4.796875 Z M 3.828125 -4.78125 C 3.828125 -4.03125 4.039062 -3.410156 4.46875 -2.921875 C 4.894531 -2.429688 5.4375 -2.1875 6.09375 -2.1875 C 6.78125 -2.1875 7.332031 -2.425781 7.75 -2.90625 C 8.175781 -3.394531 8.390625 -4.019531 8.390625 -4.78125 C 8.390625 -5.53125 8.175781 -6.144531 7.75 -6.625 C 7.332031 -7.113281 6.78125 -7.359375 6.09375 -7.359375 C 5.4375 -7.359375 4.894531 -7.113281 4.46875 -6.625 C 4.039062 -6.132812 3.828125 -5.519531 3.828125 -4.78125 Z M 3.828125 -4.78125 "/></g></g></g><g fill="#f7faff" fill-opacity="1"><g transform="translate(150.109281, 30.613937)"><g><path d="M 4.53125 -9.359375 L 4.53125 0 L 1.546875 0 L 1.546875 -9.359375 Z M 1.484375 -12.671875 C 1.484375 -13.109375 1.648438 -13.472656 1.984375 -13.765625 C 2.316406 -14.054688 2.695312 -14.203125 3.125 -14.203125 C 3.539062 -14.203125 3.910156 -14.054688 4.234375 -13.765625 C 4.566406 -13.472656 4.734375 -13.109375 4.734375 -12.671875 C 4.734375 -12.242188 4.566406 -11.890625 4.234375 -11.609375 C 3.910156 -11.328125 3.539062 -11.1875 3.125 -11.1875 C 2.695312 -11.1875 2.316406 -11.328125 1.984375 -11.609375 C 1.648438 -11.890625 1.484375 -12.242188 1.484375 -12.671875 Z M 1.484375 -12.671875 "/></g></g></g><g fill="#f7faff" fill-opacity="1"><g transform="translate(156.186048, 30.613937)"><g><path d="M 8.046875 -9.796875 C 8.929688 -9.796875 9.671875 -9.53125 10.265625 -9 C 10.859375 -8.476562 11.160156 -7.8125 11.171875 -7 L 11.171875 0 L 8.171875 0 L 8.171875 -5.890625 C 8.128906 -6.796875 7.675781 -7.25 6.8125 -7.25 C 6.125 -7.25 5.570312 -6.925781 5.15625 -6.28125 C 4.738281 -5.644531 4.53125 -4.820312 4.53125 -3.8125 L 4.53125 0 L 1.546875 0 L 1.546875 -9.359375 L 4.265625 -9.359375 L 4.46875 -7.859375 C 4.8125 -8.472656 5.285156 -8.945312 5.890625 -9.28125 C 6.503906 -9.625 7.222656 -9.796875 8.046875 -9.796875 Z M 8.046875 -9.796875 "/></g></g></g><g fill="#f7faff" fill-opacity="1"><g transform="translate(168.895913, 30.613937)"><g/></g></g><g fill="#f7faff" fill-opacity="1"><g transform="translate(175.849964, 30.613937)"><g><path d="M 11.609375 -9.359375 L 11.609375 0 L 8.609375 0 L 8.609375 -1.15625 C 7.703125 -0.21875 6.660156 0.25 5.484375 0.25 C 4.097656 0.25 2.972656 -0.160156 2.109375 -0.984375 C 1.242188 -1.804688 0.8125 -3.035156 0.8125 -4.671875 C 0.8125 -5.691406 1.019531 -6.59375 1.4375 -7.375 C 1.863281 -8.15625 2.425781 -8.757812 3.125 -9.1875 C 3.820312 -9.613281 4.570312 -9.828125 5.375 -9.828125 C 6.195312 -9.828125 6.847656 -9.703125 7.328125 -9.453125 C 7.816406 -9.203125 8.25 -8.847656 8.625 -8.390625 L 8.8125 -9.359375 Z M 6.34375 -2.1875 C 7.382812 -2.1875 8.140625 -2.65625 8.609375 -3.59375 L 8.609375 -5.890625 C 8.429688 -6.347656 8.128906 -6.710938 7.703125 -6.984375 C 7.285156 -7.253906 6.796875 -7.390625 6.234375 -7.390625 C 5.578125 -7.390625 5.015625 -7.144531 4.546875 -6.65625 C 4.085938 -6.164062 3.859375 -5.550781 3.859375 -4.8125 C 3.859375 -4.332031 3.96875 -3.890625 4.1875 -3.484375 C 4.414062 -3.078125 4.71875 -2.757812 5.09375 -2.53125 C 5.476562 -2.300781 5.894531 -2.1875 6.34375 -2.1875 Z M 6.34375 -2.1875 "/></g></g></g><g fill="#f7faff" fill-opacity="1"><g transform="translate(188.987778, 30.613937)"><g><path d="M 8.046875 -9.796875 C 8.929688 -9.796875 9.671875 -9.53125 10.265625 -9 C 10.859375 -8.476562 11.160156 -7.8125 11.171875 -7 L 11.171875 0 L 8.171875 0 L 8.171875 -5.890625 C 8.128906 -6.796875 7.675781 -7.25 6.8125 -7.25 C 6.125 -7.25 5.570312 -6.925781 5.15625 -6.28125 C 4.738281 -5.644531 4.53125 -4.820312 4.53125 -3.8125 L 4.53125 0 L 1.546875 0 L 1.546875 -9.359375 L 4.265625 -9.359375 L 4.46875 -7.859375 C 4.8125 -8.472656 5.285156 -8.945312 5.890625 -9.28125 C 6.503906 -9.625 7.222656 -9.796875 8.046875 -9.796875 Z M 8.046875 -9.796875 "/></g></g></g><g fill="#f7faff" fill-opacity="1"><g transform="translate(201.697642, 30.613937)"><g/></g></g><g fill="#f7faff" fill-opacity="1"><g transform="translate(208.651693, 30.613937)"><g><path d="M 6.203125 -2.296875 C 6.804688 -2.296875 7.425781 -2.5 8.0625 -2.90625 L 9.390625 -0.6875 C 8.878906 -0.394531 8.335938 -0.164062 7.765625 0 C 7.203125 0.164062 6.660156 0.25 6.140625 0.25 C 5.023438 0.25 4.066406 0.0390625 3.265625 -0.375 C 2.460938 -0.789062 1.851562 -1.378906 1.4375 -2.140625 C 1.019531 -2.910156 0.8125 -3.789062 0.8125 -4.78125 C 0.8125 -5.6875 1.050781 -6.523438 1.53125 -7.296875 C 2.007812 -8.066406 2.660156 -8.675781 3.484375 -9.125 C 4.316406 -9.570312 5.222656 -9.796875 6.203125 -9.796875 C 7.546875 -9.796875 8.648438 -9.40625 9.515625 -8.625 C 10.378906 -7.84375 10.941406 -6.722656 11.203125 -5.265625 L 4.34375 -3.078125 C 4.800781 -2.554688 5.421875 -2.296875 6.203125 -2.296875 Z M 5.96875 -7.46875 C 5.300781 -7.46875 4.765625 -7.238281 4.359375 -6.78125 C 3.960938 -6.320312 3.765625 -5.707031 3.765625 -4.9375 L 3.765625 -4.75 L 7.875 -6.140625 C 7.570312 -7.023438 6.9375 -7.46875 5.96875 -7.46875 Z M 5.96875 -7.46875 "/></g></g></g><g fill="#f7faff" fill-opacity="1"><g transform="translate(220.484285, 30.613937)"><g><path d="M 7.421875 0 L 5.265625 -2.796875 L 3.296875 0 L 0.328125 0 L 3.78125 -4.703125 L 0.21875 -9.359375 L 3.890625 -9.359375 L 5.953125 -6.65625 L 7.5625 -9.359375 L 10.53125 -9.359375 L 7.328125 -4.875 L 11.046875 0 Z M 7.421875 0 "/></g></g></g><g fill="#f7faff" fill-opacity="1"><g transform="translate(231.739148, 30.613937)"><g><path d="M 4.53125 -9.359375 L 4.53125 0 L 1.546875 0 L 1.546875 -9.359375 Z M 1.484375 -12.671875 C 1.484375 -13.109375 1.648438 -13.472656 1.984375 -13.765625 C 2.316406 -14.054688 2.695312 -14.203125 3.125 -14.203125 C 3.539062 -14.203125 3.910156 -14.054688 4.234375 -13.765625 C 4.566406 -13.472656 4.734375 -13.109375 4.734375 -12.671875 C 4.734375 -12.242188 4.566406 -11.890625 4.234375 -11.609375 C 3.910156 -11.328125 3.539062 -11.1875 3.125 -11.1875 C 2.695312 -11.1875 2.316406 -11.328125 1.984375 -11.609375 C 1.648438 -11.890625 1.484375 -12.242188 1.484375 -12.671875 Z M 1.484375 -12.671875 "/></g></g></g><g fill="#f7faff" fill-opacity="1"><g transform="translate(237.815915, 30.613937)"><g><path d="M 4.578125 0.1875 C 3.804688 0.1875 3.082031 0.0507812 2.40625 -0.21875 C 1.738281 -0.488281 1.1875 -0.863281 0.75 -1.34375 L 1.984375 -3 C 2.816406 -2.226562 3.597656 -1.84375 4.328125 -1.84375 C 4.710938 -1.84375 5.019531 -1.898438 5.25 -2.015625 C 5.488281 -2.140625 5.609375 -2.320312 5.609375 -2.5625 C 5.609375 -2.851562 5.472656 -3.070312 5.203125 -3.21875 C 4.929688 -3.375 4.625 -3.5 4.28125 -3.59375 C 3.945312 -3.695312 3.726562 -3.757812 3.625 -3.78125 C 2.800781 -4.039062 2.191406 -4.421875 1.796875 -4.921875 C 1.398438 -5.429688 1.203125 -6.015625 1.203125 -6.671875 C 1.203125 -7.171875 1.332031 -7.660156 1.59375 -8.140625 C 1.851562 -8.617188 2.257812 -9.007812 2.8125 -9.3125 C 3.375 -9.625 4.070312 -9.78125 4.90625 -9.78125 C 5.675781 -9.78125 6.332031 -9.703125 6.875 -9.546875 C 7.414062 -9.390625 7.9375 -9.132812 8.4375 -8.78125 L 7.296875 -7.015625 C 7.015625 -7.242188 6.695312 -7.429688 6.34375 -7.578125 C 6 -7.734375 5.679688 -7.8125 5.390625 -7.8125 C 5.046875 -7.8125 4.765625 -7.738281 4.546875 -7.59375 C 4.335938 -7.457031 4.234375 -7.285156 4.234375 -7.078125 C 4.222656 -6.785156 4.347656 -6.5625 4.609375 -6.40625 C 4.878906 -6.257812 5.289062 -6.109375 5.84375 -5.953125 C 5.925781 -5.921875 6.015625 -5.890625 6.109375 -5.859375 C 6.203125 -5.835938 6.300781 -5.8125 6.40625 -5.78125 C 7.875 -5.289062 8.609375 -4.40625 8.609375 -3.125 C 8.609375 -2.519531 8.457031 -1.96875 8.15625 -1.46875 C 7.851562 -0.976562 7.398438 -0.578125 6.796875 -0.265625 C 6.191406 0.0351562 5.453125 0.1875 4.578125 0.1875 Z M 4.578125 0.1875 "/></g></g></g><g fill="#f7faff" fill-opacity="1"><g transform="translate(247.380412, 30.613937)"><g><path d="M 5.421875 -13.46875 L 5.421875 -9.390625 L 7.6875 -9.390625 L 7.6875 -7.0625 L 5.421875 -7.0625 L 5.421875 0 L 2.421875 0 L 2.421875 -7.0625 L 0.96875 -7.0625 L 0.96875 -9.390625 L 2.421875 -9.390625 L 2.421875 -13.46875 Z M 5.421875 -13.46875 "/></g></g></g><g fill="#f7faff" fill-opacity="1"><g transform="translate(255.810861, 30.613937)"><g><path d="M 4.53125 -9.359375 L 4.53125 0 L 1.546875 0 L 1.546875 -9.359375 Z M 1.484375 -12.671875 C 1.484375 -13.109375 1.648438 -13.472656 1.984375 -13.765625 C 2.316406 -14.054688 2.695312 -14.203125 3.125 -14.203125 C 3.539062 -14.203125 3.910156 -14.054688 4.234375 -13.765625 C 4.566406 -13.472656 4.734375 -13.109375 4.734375 -12.671875 C 4.734375 -12.242188 4.566406 -11.890625 4.234375 -11.609375 C 3.910156 -11.328125 3.539062 -11.1875 3.125 -11.1875 C 2.695312 -11.1875 2.316406 -11.328125 1.984375 -11.609375 C 1.648438 -11.890625 1.484375 -12.242188 1.484375 -12.671875 Z M 1.484375 -12.671875 "/></g></g></g><g fill="#f7faff" fill-opacity="1"><g transform="translate(261.887627, 30.613937)"><g><path d="M 8.046875 -9.796875 C 8.929688 -9.796875 9.671875 -9.53125 10.265625 -9 C 10.859375 -8.476562 11.160156 -7.8125 11.171875 -7 L 11.171875 0 L 8.171875 0 L 8.171875 -5.890625 C 8.128906 -6.796875 7.675781 -7.25 6.8125 -7.25 C 6.125 -7.25 5.570312 -6.925781 5.15625 -6.28125 C 4.738281 -5.644531 4.53125 -4.820312 4.53125 -3.8125 L 4.53125 0 L 1.546875 0 L 1.546875 -9.359375 L 4.265625 -9.359375 L 4.46875 -7.859375 C 4.8125 -8.472656 5.285156 -8.945312 5.890625 -9.28125 C 6.503906 -9.625 7.222656 -9.796875 8.046875 -9.796875 Z M 8.046875 -9.796875 "/></g></g></g><g fill="#f7faff" fill-opacity="1"><g transform="translate(274.597492, 30.613937)"><g><path d="M 12.015625 -9.359375 L 12.015625 0 C 12.015625 0.882812 11.757812 1.6875 11.25 2.40625 C 10.738281 3.125 10.050781 3.6875 9.1875 4.09375 C 8.332031 4.5 7.394531 4.703125 6.375 4.703125 C 5.601562 4.703125 4.925781 4.609375 4.34375 4.421875 C 3.769531 4.242188 3.304688 4.039062 2.953125 3.8125 C 2.609375 3.582031 2.195312 3.269531 1.71875 2.875 L 3.46875 0.8125 C 3.894531 1.207031 4.316406 1.519531 4.734375 1.75 C 5.160156 1.976562 5.695312 2.09375 6.34375 2.09375 C 7.09375 2.09375 7.722656 1.90625 8.234375 1.53125 C 8.753906 1.15625 9.015625 0.628906 9.015625 -0.046875 L 9.015625 -1.375 C 8.722656 -0.882812 8.28125 -0.488281 7.6875 -0.1875 C 7.101562 0.101562 6.378906 0.25 5.515625 0.25 C 4.679688 0.25 3.898438 0.0351562 3.171875 -0.390625 C 2.453125 -0.828125 1.878906 -1.425781 1.453125 -2.1875 C 1.023438 -2.957031 0.8125 -3.804688 0.8125 -4.734375 C 0.8125 -5.671875 1.035156 -6.53125 1.484375 -7.3125 C 1.929688 -8.101562 2.519531 -8.71875 3.25 -9.15625 C 3.988281 -9.601562 4.769531 -9.828125 5.59375 -9.828125 C 6.363281 -9.828125 7.046875 -9.710938 7.640625 -9.484375 C 8.242188 -9.265625 8.703125 -8.976562 9.015625 -8.625 L 9.25 -9.359375 Z M 6.421875 -2.1875 C 7.617188 -2.1875 8.484375 -2.65625 9.015625 -3.59375 L 9.015625 -5.890625 C 8.816406 -6.347656 8.484375 -6.710938 8.015625 -6.984375 C 7.554688 -7.253906 7.023438 -7.390625 6.421875 -7.390625 C 5.691406 -7.390625 5.078125 -7.144531 4.578125 -6.65625 C 4.078125 -6.164062 3.828125 -5.550781 3.828125 -4.8125 C 3.828125 -4.070312 4.078125 -3.445312 4.578125 -2.9375 C 5.078125 -2.4375 5.691406 -2.1875 6.421875 -2.1875 Z M 6.421875 -2.1875 "/></g></g></g><g fill="#f7faff" fill-opacity="1"><g transform="translate(133.392795, 60.481191)"><g><path d="M 4.53125 -16.890625 L 4.53125 0 L 1.546875 0 L 1.546875 -16.890625 Z M 4.53125 -16.890625 "/></g></g></g><g fill="#f7faff" fill-opacity="1"><g transform="translate(139.469562, 60.481191)"><g><path d="M 4.53125 -9.359375 L 4.53125 0 L 1.546875 0 L 1.546875 -9.359375 Z M 1.484375 -12.671875 C 1.484375 -13.109375 1.648438 -13.472656 1.984375 -13.765625 C 2.316406 -14.054688 2.695312 -14.203125 3.125 -14.203125 C 3.539062 -14.203125 3.910156 -14.054688 4.234375 -13.765625 C 4.566406 -13.472656 4.734375 -13.109375 4.734375 -12.671875 C 4.734375 -12.242188 4.566406 -11.890625 4.234375 -11.609375 C 3.910156 -11.328125 3.539062 -11.1875 3.125 -11.1875 C 2.695312 -11.1875 2.316406 -11.328125 1.984375 -11.609375 C 1.648438 -11.890625 1.484375 -12.242188 1.484375 -12.671875 Z M 1.484375 -12.671875 "/></g></g></g><g fill="#f7faff" fill-opacity="1"><g transform="translate(145.546329, 60.481191)"><g><path d="M 4.578125 0.1875 C 3.804688 0.1875 3.082031 0.0507812 2.40625 -0.21875 C 1.738281 -0.488281 1.1875 -0.863281 0.75 -1.34375 L 1.984375 -3 C 2.816406 -2.226562 3.597656 -1.84375 4.328125 -1.84375 C 4.710938 -1.84375 5.019531 -1.898438 5.25 -2.015625 C 5.488281 -2.140625 5.609375 -2.320312 5.609375 -2.5625 C 5.609375 -2.851562 5.472656 -3.070312 5.203125 -3.21875 C 4.929688 -3.375 4.625 -3.5 4.28125 -3.59375 C 3.945312 -3.695312 3.726562 -3.757812 3.625 -3.78125 C 2.800781 -4.039062 2.191406 -4.421875 1.796875 -4.921875 C 1.398438 -5.429688 1.203125 -6.015625 1.203125 -6.671875 C 1.203125 -7.171875 1.332031 -7.660156 1.59375 -8.140625 C 1.851562 -8.617188 2.257812 -9.007812 2.8125 -9.3125 C 3.375 -9.625 4.070312 -9.78125 4.90625 -9.78125 C 5.675781 -9.78125 6.332031 -9.703125 6.875 -9.546875 C 7.414062 -9.390625 7.9375 -9.132812 8.4375 -8.78125 L 7.296875 -7.015625 C 7.015625 -7.242188 6.695312 -7.429688 6.34375 -7.578125 C 6 -7.734375 5.679688 -7.8125 5.390625 -7.8125 C 5.046875 -7.8125 4.765625 -7.738281 4.546875 -7.59375 C 4.335938 -7.457031 4.234375 -7.285156 4.234375 -7.078125 C 4.222656 -6.785156 4.347656 -6.5625 4.609375 -6.40625 C 4.878906 -6.257812 5.289062 -6.109375 5.84375 -5.953125 C 5.925781 -5.921875 6.015625 -5.890625 6.109375 -5.859375 C 6.203125 -5.835938 6.300781 -5.8125 6.40625 -5.78125 C 7.875 -5.289062 8.609375 -4.40625 8.609375 -3.125 C 8.609375 -2.519531 8.457031 -1.96875 8.15625 -1.46875 C 7.851562 -0.976562 7.398438 -0.578125 6.796875 -0.265625 C 6.191406 0.0351562 5.453125 0.1875 4.578125 0.1875 Z M 4.578125 0.1875 "/></g></g></g><g fill="#f7faff" fill-opacity="1"><g transform="translate(155.110825, 60.481191)"><g><path d="M 5.421875 -13.46875 L 5.421875 -9.390625 L 7.6875 -9.390625 L 7.6875 -7.0625 L 5.421875 -7.0625 L 5.421875 0 L 2.421875 0 L 2.421875 -7.0625 L 0.96875 -7.0625 L 0.96875 -9.390625 L 2.421875 -9.390625 L 2.421875 -13.46875 Z M 5.421875 -13.46875 "/></g></g></g><g fill="#f7faff" fill-opacity="1"><g transform="translate(163.541274, 60.481191)"><g/></g></g><g fill="#f7faff" fill-opacity="1"><g transform="translate(170.495325, 60.481191)"><g><path d="M 8.09375 -9.828125 C 8.90625 -9.828125 9.648438 -9.628906 10.328125 -9.234375 C 11.003906 -8.835938 11.539062 -8.269531 11.9375 -7.53125 C 12.34375 -6.789062 12.546875 -5.90625 12.546875 -4.875 C 12.546875 -3.851562 12.320312 -2.953125 11.875 -2.171875 C 11.4375 -1.390625 10.84375 -0.789062 10.09375 -0.375 C 9.351562 0.0390625 8.550781 0.25 7.6875 0.25 C 6.414062 0.25 5.363281 -0.144531 4.53125 -0.9375 L 4.53125 0 L 1.546875 0 L 1.546875 -16.890625 L 4.515625 -16.890625 L 4.515625 -8.71875 C 4.910156 -9.039062 5.414062 -9.304688 6.03125 -9.515625 C 6.644531 -9.722656 7.332031 -9.828125 8.09375 -9.828125 Z M 7.015625 -2.265625 C 7.460938 -2.265625 7.875 -2.378906 8.25 -2.609375 C 8.625 -2.835938 8.925781 -3.15625 9.15625 -3.5625 C 9.382812 -3.96875 9.5 -4.414062 9.5 -4.90625 C 9.5 -5.644531 9.253906 -6.253906 8.765625 -6.734375 C 8.285156 -7.222656 7.703125 -7.46875 7.015625 -7.46875 C 6.429688 -7.46875 5.914062 -7.332031 5.46875 -7.0625 C 5.03125 -6.789062 4.71875 -6.425781 4.53125 -5.96875 L 4.53125 -3.6875 C 5.050781 -2.738281 5.878906 -2.265625 7.015625 -2.265625 Z M 7.015625 -2.265625 "/></g></g></g><g fill="#f7faff" fill-opacity="1"><g transform="translate(183.847108, 60.481191)"><g><path d="M 11.21875 -9.359375 L 5.1875 4.5 L 2.296875 4.5 L 4.53125 -0.5 L 0.21875 -9.359375 L 3.578125 -9.359375 L 6.03125 -3.828125 L 8.515625 -9.359375 Z M 11.21875 -9.359375 "/></g></g></g><g fill="#f7faff" fill-opacity="1"><g transform="translate(195.273147, 60.481191)"><g/></g></g><g fill="#f7faff" fill-opacity="1"><g transform="translate(202.227198, 60.481191)"><g><path d="M 6.203125 -2.296875 C 6.804688 -2.296875 7.425781 -2.5 8.0625 -2.90625 L 9.390625 -0.6875 C 8.878906 -0.394531 8.335938 -0.164062 7.765625 0 C 7.203125 0.164062 6.660156 0.25 6.140625 0.25 C 5.023438 0.25 4.066406 0.0390625 3.265625 -0.375 C 2.460938 -0.789062 1.851562 -1.378906 1.4375 -2.140625 C 1.019531 -2.910156 0.8125 -3.789062 0.8125 -4.78125 C 0.8125 -5.6875 1.050781 -6.523438 1.53125 -7.296875 C 2.007812 -8.066406 2.660156 -8.675781 3.484375 -9.125 C 4.316406 -9.570312 5.222656 -9.796875 6.203125 -9.796875 C 7.546875 -9.796875 8.648438 -9.40625 9.515625 -8.625 C 10.378906 -7.84375 10.941406 -6.722656 11.203125 -5.265625 L 4.34375 -3.078125 C 4.800781 -2.554688 5.421875 -2.296875 6.203125 -2.296875 Z M 5.96875 -7.46875 C 5.300781 -7.46875 4.765625 -7.238281 4.359375 -6.78125 C 3.960938 -6.320312 3.765625 -5.707031 3.765625 -4.9375 L 3.765625 -4.75 L 7.875 -6.140625 C 7.570312 -7.023438 6.9375 -7.46875 5.96875 -7.46875 Z M 5.96875 -7.46875 "/></g></g></g><g fill="#f7faff" fill-opacity="1"><g transform="translate(214.05979, 60.481191)"><g><path d="M 8.046875 -9.796875 C 8.929688 -9.796875 9.671875 -9.53125 10.265625 -9 C 10.859375 -8.476562 11.160156 -7.8125 11.171875 -7 L 11.171875 0 L 8.171875 0 L 8.171875 -5.890625 C 8.128906 -6.796875 7.675781 -7.25 6.8125 -7.25 C 6.125 -7.25 5.570312 -6.925781 5.15625 -6.28125 C 4.738281 -5.644531 4.53125 -4.820312 4.53125 -3.8125 L 4.53125 0 L 1.546875 0 L 1.546875 -9.359375 L 4.265625 -9.359375 L 4.46875 -7.859375 C 4.8125 -8.472656 5.285156 -8.945312 5.890625 -9.28125 C 6.503906 -9.625 7.222656 -9.796875 8.046875 -9.796875 Z M 8.046875 -9.796875 "/></g></g></g><g fill="#f7faff" fill-opacity="1"><g transform="translate(226.769654, 60.481191)"><g><path d="M 5.421875 -13.46875 L 5.421875 -9.390625 L 7.6875 -9.390625 L 7.6875 -7.0625 L 5.421875 -7.0625 L 5.421875 0 L 2.421875 0 L 2.421875 -7.0625 L 0.96875 -7.0625 L 0.96875 -9.390625 L 2.421875 -9.390625 L 2.421875 -13.46875 Z M 5.421875 -13.46875 "/></g></g></g><g fill="#f7faff" fill-opacity="1"><g transform="translate(235.200103, 60.481191)"><g><path d="M 6.203125 -2.296875 C 6.804688 -2.296875 7.425781 -2.5 8.0625 -2.90625 L 9.390625 -0.6875 C 8.878906 -0.394531 8.335938 -0.164062 7.765625 0 C 7.203125 0.164062 6.660156 0.25 6.140625 0.25 C 5.023438 0.25 4.066406 0.0390625 3.265625 -0.375 C 2.460938 -0.789062 1.851562 -1.378906 1.4375 -2.140625 C 1.019531 -2.910156 0.8125 -3.789062 0.8125 -4.78125 C 0.8125 -5.6875 1.050781 -6.523438 1.53125 -7.296875 C 2.007812 -8.066406 2.660156 -8.675781 3.484375 -9.125 C 4.316406 -9.570312 5.222656 -9.796875 6.203125 -9.796875 C 7.546875 -9.796875 8.648438 -9.40625 9.515625 -8.625 C 10.378906 -7.84375 10.941406 -6.722656 11.203125 -5.265625 L 4.34375 -3.078125 C 4.800781 -2.554688 5.421875 -2.296875 6.203125 -2.296875 Z M 5.96875 -7.46875 C 5.300781 -7.46875 4.765625 -7.238281 4.359375 -6.78125 C 3.960938 -6.320312 3.765625 -5.707031 3.765625 -4.9375 L 3.765625 -4.75 L 7.875 -6.140625 C 7.570312 -7.023438 6.9375 -7.46875 5.96875 -7.46875 Z M 5.96875 -7.46875 "/></g></g></g><g fill="#f7faff" fill-opacity="1"><g transform="translate(247.032695, 60.481191)"><g><path d="M 4.46875 -7.21875 C 4.726562 -7.71875 5.082031 -8.164062 5.53125 -8.5625 C 5.976562 -8.957031 6.4375 -9.265625 6.90625 -9.484375 C 7.382812 -9.710938 7.757812 -9.828125 8.03125 -9.828125 L 7.875 -6.828125 C 7.789062 -6.835938 7.671875 -6.84375 7.515625 -6.84375 C 6.910156 -6.84375 6.378906 -6.6875 5.921875 -6.375 C 5.472656 -6.0625 5.125 -5.660156 4.875 -5.171875 C 4.632812 -4.679688 4.515625 -4.175781 4.515625 -3.65625 L 4.515625 0 L 1.546875 0 L 1.546875 -9.359375 L 4.234375 -9.359375 Z M 4.46875 -7.21875 "/></g></g></g><g fill="#f7faff" fill-opacity="1"><g transform="translate(255.805494, 60.481191)"><g><path d="M 4.53125 -9.359375 L 4.53125 0 L 1.546875 0 L 1.546875 -9.359375 Z M 1.484375 -12.671875 C 1.484375 -13.109375 1.648438 -13.472656 1.984375 -13.765625 C 2.316406 -14.054688 2.695312 -14.203125 3.125 -14.203125 C 3.539062 -14.203125 3.910156 -14.054688 4.234375 -13.765625 C 4.566406 -13.472656 4.734375 -13.109375 4.734375 -12.671875 C 4.734375 -12.242188 4.566406 -11.890625 4.234375 -11.609375 C 3.910156 -11.328125 3.539062 -11.1875 3.125 -11.1875 C 2.695312 -11.1875 2.316406 -11.328125 1.984375 -11.609375 C 1.648438 -11.890625 1.484375 -12.242188 1.484375 -12.671875 Z M 1.484375 -12.671875 "/></g></g></g><g fill="#f7faff" fill-opacity="1"><g transform="translate(261.882261, 60.481191)"><g><path d="M 8.046875 -9.796875 C 8.929688 -9.796875 9.671875 -9.53125 10.265625 -9 C 10.859375 -8.476562 11.160156 -7.8125 11.171875 -7 L 11.171875 0 L 8.171875 0 L 8.171875 -5.890625 C 8.128906 -6.796875 7.675781 -7.25 6.8125 -7.25 C 6.125 -7.25 5.570312 -6.925781 5.15625 -6.28125 C 4.738281 -5.644531 4.53125 -4.820312 4.53125 -3.8125 L 4.53125 0 L 1.546875 0 L 1.546875 -9.359375 L 4.265625 -9.359375 L 4.46875 -7.859375 C 4.8125 -8.472656 5.285156 -8.945312 5.890625 -9.28125 C 6.503906 -9.625 7.222656 -9.796875 8.046875 -9.796875 Z M 8.046875 -9.796875 "/></g></g></g><g fill="#f7faff" fill-opacity="1"><g transform="translate(274.592126, 60.481191)"><g><path d="M 12.015625 -9.359375 L 12.015625 0 C 12.015625 0.882812 11.757812 1.6875 11.25 2.40625 C 10.738281 3.125 10.050781 3.6875 9.1875 4.09375 C 8.332031 4.5 7.394531 4.703125 6.375 4.703125 C 5.601562 4.703125 4.925781 4.609375 4.34375 4.421875 C 3.769531 4.242188 3.304688 4.039062 2.953125 3.8125 C 2.609375 3.582031 2.195312 3.269531 1.71875 2.875 L 3.46875 0.8125 C 3.894531 1.207031 4.316406 1.519531 4.734375 1.75 C 5.160156 1.976562 5.695312 2.09375 6.34375 2.09375 C 7.09375 2.09375 7.722656 1.90625 8.234375 1.53125 C 8.753906 1.15625 9.015625 0.628906 9.015625 -0.046875 L 9.015625 -1.375 C 8.722656 -0.882812 8.28125 -0.488281 7.6875 -0.1875 C 7.101562 0.101562 6.378906 0.25 5.515625 0.25 C 4.679688 0.25 3.898438 0.0351562 3.171875 -0.390625 C 2.453125 -0.828125 1.878906 -1.425781 1.453125 -2.1875 C 1.023438 -2.957031 0.8125 -3.804688 0.8125 -4.734375 C 0.8125 -5.671875 1.035156 -6.53125 1.484375 -7.3125 C 1.929688 -8.101562 2.519531 -8.71875 3.25 -9.15625 C 3.988281 -9.601562 4.769531 -9.828125 5.59375 -9.828125 C 6.363281 -9.828125 7.046875 -9.710938 7.640625 -9.484375 C 8.242188 -9.265625 8.703125 -8.976562 9.015625 -8.625 L 9.25 -9.359375 Z M 6.421875 -2.1875 C 7.617188 -2.1875 8.484375 -2.65625 9.015625 -3.59375 L 9.015625 -5.890625 C 8.816406 -6.347656 8.484375 -6.710938 8.015625 -6.984375 C 7.554688 -7.253906 7.023438 -7.390625 6.421875 -7.390625 C 5.691406 -7.390625 5.078125 -7.144531 4.578125 -6.65625 C 4.078125 -6.164062 3.828125 -5.550781 3.828125 -4.8125 C 3.828125 -4.070312 4.078125 -3.445312 4.578125 -2.9375 C 5.078125 -2.4375 5.691406 -2.1875 6.421875 -2.1875 Z M 6.421875 -2.1875 "/></g></g></g><g fill="#f7faff" fill-opacity="1"><g transform="translate(148.606428, 90.348446)"><g><path d="M 5.421875 -13.46875 L 5.421875 -9.390625 L 7.6875 -9.390625 L 7.6875 -7.0625 L 5.421875 -7.0625 L 5.421875 0 L 2.421875 0 L 2.421875 -7.0625 L 0.96875 -7.0625 L 0.96875 -9.390625 L 2.421875 -9.390625 L 2.421875 -13.46875 Z M 5.421875 -13.46875 "/></g></g></g><g fill="#f7faff" fill-opacity="1"><g transform="translate(157.036877, 90.348446)"><g><path d="M 8.046875 -9.796875 C 8.929688 -9.796875 9.671875 -9.53125 10.265625 -9 C 10.859375 -8.476562 11.160156 -7.8125 11.171875 -7 L 11.171875 0 L 8.171875 0 L 8.171875 -5.890625 C 8.128906 -6.796875 7.675781 -7.25 6.8125 -7.25 C 6.125 -7.25 5.570312 -6.925781 5.15625 -6.28125 C 4.738281 -5.644531 4.53125 -4.820312 4.53125 -3.8125 L 4.53125 0 L 1.546875 0 L 1.546875 -16.890625 L 4.46875 -16.890625 L 4.46875 -7.875 C 4.8125 -8.476562 5.285156 -8.945312 5.890625 -9.28125 C 6.503906 -9.625 7.222656 -9.796875 8.046875 -9.796875 Z M 8.046875 -9.796875 "/></g></g></g><g fill="#f7faff" fill-opacity="1"><g transform="translate(169.746742, 90.348446)"><g><path d="M 6.203125 -2.296875 C 6.804688 -2.296875 7.425781 -2.5 8.0625 -2.90625 L 9.390625 -0.6875 C 8.878906 -0.394531 8.335938 -0.164062 7.765625 0 C 7.203125 0.164062 6.660156 0.25 6.140625 0.25 C 5.023438 0.25 4.066406 0.0390625 3.265625 -0.375 C 2.460938 -0.789062 1.851562 -1.378906 1.4375 -2.140625 C 1.019531 -2.910156 0.8125 -3.789062 0.8125 -4.78125 C 0.8125 -5.6875 1.050781 -6.523438 1.53125 -7.296875 C 2.007812 -8.066406 2.660156 -8.675781 3.484375 -9.125 C 4.316406 -9.570312 5.222656 -9.796875 6.203125 -9.796875 C 7.546875 -9.796875 8.648438 -9.40625 9.515625 -8.625 C 10.378906 -7.84375 10.941406 -6.722656 11.203125 -5.265625 L 4.34375 -3.078125 C 4.800781 -2.554688 5.421875 -2.296875 6.203125 -2.296875 Z M 5.96875 -7.46875 C 5.300781 -7.46875 4.765625 -7.238281 4.359375 -6.78125 C 3.960938 -6.320312 3.765625 -5.707031 3.765625 -4.9375 L 3.765625 -4.75 L 7.875 -6.140625 C 7.570312 -7.023438 6.9375 -7.46875 5.96875 -7.46875 Z M 5.96875 -7.46875 "/></g></g></g><g fill="#f7faff" fill-opacity="1"><g transform="translate(181.579333, 90.348446)"><g><path d="M 4.53125 -9.359375 L 4.53125 0 L 1.546875 0 L 1.546875 -9.359375 Z M 1.484375 -12.671875 C 1.484375 -13.109375 1.648438 -13.472656 1.984375 -13.765625 C 2.316406 -14.054688 2.695312 -14.203125 3.125 -14.203125 C 3.539062 -14.203125 3.910156 -14.054688 4.234375 -13.765625 C 4.566406 -13.472656 4.734375 -13.109375 4.734375 -12.671875 C 4.734375 -12.242188 4.566406 -11.890625 4.234375 -11.609375 C 3.910156 -11.328125 3.539062 -11.1875 3.125 -11.1875 C 2.695312 -11.1875 2.316406 -11.328125 1.984375 -11.609375 C 1.648438 -11.890625 1.484375 -12.242188 1.484375 -12.671875 Z M 1.484375 -12.671875 "/></g></g></g><g fill="#f7faff" fill-opacity="1"><g transform="translate(187.6561, 90.348446)"><g><path d="M 4.46875 -7.21875 C 4.726562 -7.71875 5.082031 -8.164062 5.53125 -8.5625 C 5.976562 -8.957031 6.4375 -9.265625 6.90625 -9.484375 C 7.382812 -9.710938 7.757812 -9.828125 8.03125 -9.828125 L 7.875 -6.828125 C 7.789062 -6.835938 7.671875 -6.84375 7.515625 -6.84375 C 6.910156 -6.84375 6.378906 -6.6875 5.921875 -6.375 C 5.472656 -6.0625 5.125 -5.660156 4.875 -5.171875 C 4.632812 -4.679688 4.515625 -4.175781 4.515625 -3.65625 L 4.515625 0 L 1.546875 0 L 1.546875 -9.359375 L 4.234375 -9.359375 Z M 4.46875 -7.21875 "/></g></g></g><g fill="#f7faff" fill-opacity="1"><g transform="translate(196.428899, 90.348446)"><g/></g></g><g fill="#f7faff" fill-opacity="1"><g transform="translate(203.382951, 90.348446)"><g><path d="M 4.53125 -16.890625 L 4.53125 0 L 1.546875 0 L 1.546875 -16.890625 Z M 4.53125 -16.890625 "/></g></g></g><g fill="#f7faff" fill-opacity="1"><g transform="translate(209.459717, 90.348446)"><g><path d="M 4.53125 -9.359375 L 4.53125 0 L 1.546875 0 L 1.546875 -9.359375 Z M 1.484375 -12.671875 C 1.484375 -13.109375 1.648438 -13.472656 1.984375 -13.765625 C 2.316406 -14.054688 2.695312 -14.203125 3.125 -14.203125 C 3.539062 -14.203125 3.910156 -14.054688 4.234375 -13.765625 C 4.566406 -13.472656 4.734375 -13.109375 4.734375 -12.671875 C 4.734375 -12.242188 4.566406 -11.890625 4.234375 -11.609375 C 3.910156 -11.328125 3.539062 -11.1875 3.125 -11.1875 C 2.695312 -11.1875 2.316406 -11.328125 1.984375 -11.609375 C 1.648438 -11.890625 1.484375 -12.242188 1.484375 -12.671875 Z M 1.484375 -12.671875 "/></g></g></g><g fill="#f7faff" fill-opacity="1"><g transform="translate(215.536484, 90.348446)"><g><path d="M 4.578125 0.1875 C 3.804688 0.1875 3.082031 0.0507812 2.40625 -0.21875 C 1.738281 -0.488281 1.1875 -0.863281 0.75 -1.34375 L 1.984375 -3 C 2.816406 -2.226562 3.597656 -1.84375 4.328125 -1.84375 C 4.710938 -1.84375 5.019531 -1.898438 5.25 -2.015625 C 5.488281 -2.140625 5.609375 -2.320312 5.609375 -2.5625 C 5.609375 -2.851562 5.472656 -3.070312 5.203125 -3.21875 C 4.929688 -3.375 4.625 -3.5 4.28125 -3.59375 C 3.945312 -3.695312 3.726562 -3.757812 3.625 -3.78125 C 2.800781 -4.039062 2.191406 -4.421875 1.796875 -4.921875 C 1.398438 -5.429688 1.203125 -6.015625 1.203125 -6.671875 C 1.203125 -7.171875 1.332031 -7.660156 1.59375 -8.140625 C 1.851562 -8.617188 2.257812 -9.007812 2.8125 -9.3125 C 3.375 -9.625 4.070312 -9.78125 4.90625 -9.78125 C 5.675781 -9.78125 6.332031 -9.703125 6.875 -9.546875 C 7.414062 -9.390625 7.9375 -9.132812 8.4375 -8.78125 L 7.296875 -7.015625 C 7.015625 -7.242188 6.695312 -7.429688 6.34375 -7.578125 C 6 -7.734375 5.679688 -7.8125 5.390625 -7.8125 C 5.046875 -7.8125 4.765625 -7.738281 4.546875 -7.59375 C 4.335938 -7.457031 4.234375 -7.285156 4.234375 -7.078125 C 4.222656 -6.785156 4.347656 -6.5625 4.609375 -6.40625 C 4.878906 -6.257812 5.289062 -6.109375 5.84375 -5.953125 C 5.925781 -5.921875 6.015625 -5.890625 6.109375 -5.859375 C 6.203125 -5.835938 6.300781 -5.8125 6.40625 -5.78125 C 7.875 -5.289062 8.609375 -4.40625 8.609375 -3.125 C 8.609375 -2.519531 8.457031 -1.96875 8.15625 -1.46875 C 7.851562 -0.976562 7.398438 -0.578125 6.796875 -0.265625 C 6.191406 0.0351562 5.453125 0.1875 4.578125 0.1875 Z M 4.578125 0.1875 "/></g></g></g><g fill="#f7faff" fill-opacity="1"><g transform="translate(225.100981, 90.348446)"><g><path d="M 5.421875 -13.46875 L 5.421875 -9.390625 L 7.6875 -9.390625 L 7.6875 -7.0625 L 5.421875 -7.0625 L 5.421875 0 L 2.421875 0 L 2.421875 -7.0625 L 0.96875 -7.0625 L 0.96875 -9.390625 L 2.421875 -9.390625 L 2.421875 -13.46875 Z M 5.421875 -13.46875 "/></g></g></g><g fill="#f7faff" fill-opacity="1"><g transform="translate(233.53143, 90.348446)"><g/></g></g><g fill="#f7faff" fill-opacity="1"><g transform="translate(240.485481, 90.348446)"><g><path d="M 9.484375 -0.828125 C 9.066406 -0.503906 8.546875 -0.242188 7.921875 -0.046875 C 7.304688 0.148438 6.695312 0.25 6.09375 0.25 C 4.46875 0.25 3.179688 -0.1875 2.234375 -1.0625 C 1.285156 -1.9375 0.8125 -3.144531 0.8125 -4.6875 C 0.8125 -5.6875 1.039062 -6.5625 1.5 -7.3125 C 1.96875 -8.0625 2.578125 -8.628906 3.328125 -9.015625 C 4.085938 -9.410156 4.90625 -9.609375 5.78125 -9.609375 C 7.332031 -9.609375 8.59375 -9.195312 9.5625 -8.375 L 8.109375 -6.4375 C 7.492188 -6.925781 6.8125 -7.171875 6.0625 -7.171875 C 5.425781 -7.171875 4.890625 -6.9375 4.453125 -6.46875 C 4.023438 -6 3.8125 -5.40625 3.8125 -4.6875 C 3.8125 -3.976562 4.046875 -3.382812 4.515625 -2.90625 C 4.984375 -2.425781 5.597656 -2.1875 6.359375 -2.1875 C 7.015625 -2.1875 7.554688 -2.363281 7.984375 -2.71875 Z M 9.484375 -0.828125 "/></g></g></g><g fill="#f7faff" fill-opacity="1"><g transform="translate(250.734678, 90.348446)"><g><path d="M 0.8125 -4.796875 C 0.8125 -5.753906 1.035156 -6.609375 1.484375 -7.359375 C 1.929688 -8.117188 2.566406 -8.710938 3.390625 -9.140625 C 4.210938 -9.578125 5.144531 -9.796875 6.1875 -9.796875 C 7.226562 -9.796875 8.144531 -9.578125 8.9375 -9.140625 C 9.726562 -8.710938 10.335938 -8.117188 10.765625 -7.359375 C 11.191406 -6.609375 11.40625 -5.753906 11.40625 -4.796875 C 11.40625 -3.835938 11.191406 -2.972656 10.765625 -2.203125 C 10.335938 -1.429688 9.726562 -0.828125 8.9375 -0.390625 C 8.144531 0.0351562 7.210938 0.25 6.140625 0.25 C 5.097656 0.25 4.171875 0.046875 3.359375 -0.359375 C 2.554688 -0.765625 1.929688 -1.34375 1.484375 -2.09375 C 1.035156 -2.851562 0.8125 -3.753906 0.8125 -4.796875 Z M 3.828125 -4.78125 C 3.828125 -4.03125 4.039062 -3.410156 4.46875 -2.921875 C 4.894531 -2.429688 5.4375 -2.1875 6.09375 -2.1875 C 6.78125 -2.1875 7.332031 -2.425781 7.75 -2.90625 C 8.175781 -3.394531 8.390625 -4.019531 8.390625 -4.78125 C 8.390625 -5.53125 8.175781 -6.144531 7.75 -6.625 C 7.332031 -7.113281 6.78125 -7.359375 6.09375 -7.359375 C 5.4375 -7.359375 4.894531 -7.113281 4.46875 -6.625 C 4.039062 -6.132812 3.828125 -5.519531 3.828125 -4.78125 Z M 3.828125 -4.78125 "/></g></g></g><g fill="#f7faff" fill-opacity="1"><g transform="translate(262.952414, 90.348446)"><g><path d="M 11.8125 -16.890625 L 11.8125 0 L 8.8125 0 L 8.8125 -0.984375 C 7.726562 -0.160156 6.570312 0.25 5.34375 0.25 C 4.476562 0.25 3.703125 0.046875 3.015625 -0.359375 C 2.328125 -0.773438 1.785156 -1.367188 1.390625 -2.140625 C 1.003906 -2.910156 0.8125 -3.816406 0.8125 -4.859375 C 0.8125 -5.890625 1.019531 -6.773438 1.4375 -7.515625 C 1.863281 -8.265625 2.445312 -8.835938 3.1875 -9.234375 C 3.925781 -9.628906 4.773438 -9.828125 5.734375 -9.828125 C 6.347656 -9.828125 6.925781 -9.726562 7.46875 -9.53125 C 8.007812 -9.34375 8.46875 -9.0625 8.84375 -8.6875 L 8.84375 -16.890625 Z M 6.34375 -2.265625 C 6.9375 -2.265625 7.429688 -2.378906 7.828125 -2.609375 C 8.234375 -2.847656 8.5625 -3.207031 8.8125 -3.6875 L 8.8125 -5.96875 C 8.644531 -6.425781 8.335938 -6.789062 7.890625 -7.0625 C 7.453125 -7.332031 6.9375 -7.46875 6.34375 -7.46875 C 5.664062 -7.46875 5.082031 -7.222656 4.59375 -6.734375 C 4.101562 -6.253906 3.859375 -5.644531 3.859375 -4.90625 C 3.859375 -4.414062 3.96875 -3.96875 4.1875 -3.5625 C 4.414062 -3.15625 4.71875 -2.835938 5.09375 -2.609375 C 5.476562 -2.378906 5.894531 -2.265625 6.34375 -2.265625 Z M 6.34375 -2.265625 "/></g></g></g><g fill="#f7faff" fill-opacity="1"><g transform="translate(276.304197, 90.348446)"><g><path d="M 6.203125 -2.296875 C 6.804688 -2.296875 7.425781 -2.5 8.0625 -2.90625 L 9.390625 -0.6875 C 8.878906 -0.394531 8.335938 -0.164062 7.765625 0 C 7.203125 0.164062 6.660156 0.25 6.140625 0.25 C 5.023438 0.25 4.066406 0.0390625 3.265625 -0.375 C 2.460938 -0.789062 1.851562 -1.378906 1.4375 -2.140625 C 1.019531 -2.910156 0.8125 -3.789062 0.8125 -4.78125 C 0.8125 -5.6875 1.050781 -6.523438 1.53125 -7.296875 C 2.007812 -8.066406 2.660156 -8.675781 3.484375 -9.125 C 4.316406 -9.570312 5.222656 -9.796875 6.203125 -9.796875 C 7.546875 -9.796875 8.648438 -9.40625 9.515625 -8.625 C 10.378906 -7.84375 10.941406 -6.722656 11.203125 -5.265625 L 4.34375 -3.078125 C 4.800781 -2.554688 5.421875 -2.296875 6.203125 -2.296875 Z M 5.96875 -7.46875 C 5.300781 -7.46875 4.765625 -7.238281 4.359375 -6.78125 C 3.960938 -6.320312 3.765625 -5.707031 3.765625 -4.9375 L 3.765625 -4.75 L 7.875 -6.140625 C 7.570312 -7.023438 6.9375 -7.46875 5.96875 -7.46875 Z M 5.96875 -7.46875 "/></g></g></g><g clip-path="url(#95ad564f58)"><path fill="#f7faff" d="M 39.625 67.917969 C 40.441406 67 41.085938 66.1875 41.820312 65.464844 C 44.269531 63.074219 46.636719 60.582031 49.257812 58.386719 C 52.089844 56.015625 56.15625 56.65625 58.761719 59.402344 C 59.414062 60.082031 60.558594 60.292969 61.589844 60.769531 C 62.035156 61.867188 60.980469 62.351562 60.328125 62.964844 C 54.414062 68.546875 49.820312 75.136719 45.835938 82.128906 C 44.3125 84.800781 43.289062 87.769531 42.132812 90.636719 C 41.226562 92.890625 41.109375 93.210938 38.636719 93.015625 C 34.222656 92.660156 30.378906 91.171875 27.601562 87.398438 C 22.757812 80.851562 17.539062 74.574219 13.90625 67.21875 C 13.324219 66.023438 12.886719 64.753906 12.078125 62.785156 C 15.699219 63.433594 18.675781 63.410156 20.589844 66.269531 C 21.761719 68.023438 22.957031 69.753906 24.574219 72.144531 C 24.984375 69.628906 25.242188 67.890625 25.554688 66.171875 C 27.921875 53.195312 33.175781 41.492188 43.03125 32.574219 C 52 24.453125 62.53125 18.835938 75.160156 18.683594 C 85.765625 18.558594 94.871094 22.691406 102.832031 29.328125 C 106.015625 31.992188 108.710938 35.246094 111.542969 38.3125 C 112.277344 39.105469 112.679688 40.1875 113.234375 41.148438 C 113.019531 41.351562 112.804688 41.558594 112.589844 41.761719 C 111.285156 40.960938 109.933594 40.222656 108.703125 39.320312 C 107.9375 38.753906 107.34375 37.953125 106.699219 37.230469 C 98.453125 27.960938 88.035156 25.484375 76.230469 28.007812 C 67.214844 29.9375 59.769531 34.761719 53.507812 41.378906 C 46.890625 48.351562 42.40625 56.566406 39.714844 65.761719 C 39.59375 66.171875 39.492188 66.589844 39.429688 67.007812 C 39.410156 67.195312 39.511719 67.402344 39.625 67.917969 Z M 39.625 67.917969 " fill-opacity="1" fill-rule="nonzero"/></g></svg>