<svg xmlns="http://www.w3.org/2000/svg" xmlns:xlink="http://www.w3.org/1999/xlink" width="500" zoomAndPan="magnify" viewBox="0 0 375 374.999991" height="500" preserveAspectRatio="xMidYMid meet" version="1.0"><path fill="#0066ff" d="M 302.191406 174.703125 L 251.195312 225.679688 C 223.050781 253.84375 177.390625 253.84375 149.242188 225.679688 C 144.808594 221.261719 141.339844 216.28125 138.292969 211.140625 L 161.988281 187.445312 C 163.113281 186.3125 164.503906 185.660156 165.832031 184.894531 C 167.46875 190.492188 170.332031 195.789062 174.730469 200.191406 C 188.785156 214.253906 211.660156 214.238281 225.707031 200.191406 L 276.683594 149.214844 C 290.75 135.148438 290.75 112.285156 276.683594 98.230469 C 262.636719 84.171875 239.773438 84.171875 225.707031 98.230469 L 207.578125 116.378906 C 192.871094 110.648438 177.019531 109.109375 161.589844 111.367188 L 200.21875 72.742188 C 228.382812 44.585938 274.027344 44.585938 302.191406 72.742188 C 330.335938 100.898438 330.335938 146.546875 302.191406 174.703125 Z M 167.382812 258.527344 L 149.242188 276.675781 C 135.1875 290.722656 112.3125 290.722656 98.257812 276.675781 C 84.203125 262.609375 84.203125 239.746094 98.257812 225.679688 L 149.242188 174.703125 C 163.308594 160.640625 186.164062 160.640625 200.21875 174.703125 C 204.613281 179.09375 207.472656 184.394531 209.125 189.984375 C 210.464844 189.207031 211.835938 188.574219 212.964844 187.449219 L 236.65625 163.765625 C 233.628906 158.605469 230.144531 153.640625 225.707031 149.214844 C 197.5625 121.0625 151.902344 121.0625 123.746094 149.214844 L 72.769531 200.191406 C 44.613281 228.355469 44.613281 274 72.769531 302.164062 C 100.925781 330.308594 146.578125 330.308594 174.730469 302.164062 L 213.371094 263.523438 C 197.933594 265.796875 182.082031 264.246094 167.382812 258.527344 Z M 167.382812 258.527344 " fill-opacity="1" fill-rule="nonzero"/></svg>