<svg xmlns="http://www.w3.org/2000/svg" xmlns:xlink="http://www.w3.org/1999/xlink" width="1000" zoomAndPan="magnify" viewBox="0 0 750 149.999998" height="200" preserveAspectRatio="xMidYMid meet" version="1.0"><defs><g/></defs><path fill="#0066ff" d="M 135.21875 68.292969 L 108.449219 95.054688 C 93.671875 109.839844 69.703125 109.839844 54.929688 95.054688 C 52.601562 92.734375 50.78125 90.121094 49.183594 87.421875 L 61.621094 74.984375 C 62.210938 74.386719 62.941406 74.046875 63.640625 73.644531 C 64.496094 76.582031 66 79.363281 68.308594 81.675781 C 75.6875 89.058594 87.695312 89.046875 95.070312 81.675781 L 121.828125 54.914062 C 129.210938 47.53125 129.210938 35.527344 121.828125 28.152344 C 114.453125 20.773438 102.453125 20.773438 95.070312 28.152344 L 85.550781 37.675781 C 77.832031 34.667969 69.511719 33.859375 61.410156 35.046875 L 81.6875 14.769531 C 96.472656 -0.0078125 120.433594 -0.0078125 135.214844 14.769531 C 149.992188 29.550781 149.992188 53.515625 135.21875 68.292969 Z M 64.453125 112.296875 L 54.929688 121.824219 C 47.550781 129.195312 35.542969 129.195312 28.164062 121.824219 C 20.789062 114.441406 20.789062 102.4375 28.164062 95.054688 L 54.929688 68.296875 C 62.3125 60.914062 74.3125 60.914062 81.6875 68.296875 C 83.996094 70.601562 85.496094 73.382812 86.363281 76.316406 C 87.066406 75.910156 87.789062 75.578125 88.378906 74.984375 L 100.816406 62.550781 C 99.226562 59.84375 97.398438 57.238281 95.070312 54.914062 C 80.292969 40.136719 56.324219 40.136719 41.546875 54.914062 L 14.785156 81.675781 C 0.0078125 96.457031 0.0078125 120.417969 14.785156 135.203125 C 29.566406 149.976562 53.53125 149.976562 68.308594 135.203125 L 88.59375 114.921875 C 80.488281 116.113281 72.167969 115.300781 64.453125 112.296875 Z M 64.453125 112.296875 " fill-opacity="1" fill-rule="nonzero"/><g fill="#00265c" fill-opacity="1"><g transform="translate(166.498312, 126.326721)"><g><path d="M 33.875 -103.890625 L 33.875 -19.765625 L 82.71875 -19.765625 L 82.71875 0 L 13.40625 0 L 13.40625 -103.890625 Z M 33.875 -103.890625 "/></g></g></g><g fill="#00265c" fill-opacity="1"><g transform="translate(248.225041, 126.326721)"><g><path d="M 29.921875 -61.6875 L 29.921875 0 L 10.15625 0 L 10.15625 -61.6875 Z M 9.734375 -83.5625 C 9.734375 -86.382812 10.835938 -88.757812 13.046875 -90.6875 C 15.265625 -92.613281 17.785156 -93.578125 20.609375 -93.578125 C 23.335938 -93.578125 25.785156 -92.613281 27.953125 -90.6875 C 30.117188 -88.757812 31.203125 -86.382812 31.203125 -83.5625 C 31.203125 -80.738281 30.117188 -78.382812 27.953125 -76.5 C 25.785156 -74.613281 23.335938 -73.671875 20.609375 -73.671875 C 17.785156 -73.671875 15.265625 -74.613281 13.046875 -76.5 C 10.835938 -78.382812 9.734375 -80.738281 9.734375 -83.5625 Z M 9.734375 -83.5625 "/></g></g></g><g fill="#00265c" fill-opacity="1"><g transform="translate(279.560393, 126.326721)"><g><path d="M 53.078125 -64.65625 C 58.910156 -64.65625 63.78125 -62.910156 67.6875 -59.421875 C 71.59375 -55.941406 73.59375 -51.519531 73.6875 -46.15625 L 73.6875 0 L 53.921875 0 L 53.921875 -38.8125 C 53.640625 -44.84375 50.628906 -47.859375 44.890625 -47.859375 C 40.367188 -47.859375 36.742188 -45.738281 34.015625 -41.5 C 31.285156 -37.257812 29.921875 -31.800781 29.921875 -25.125 L 29.921875 0 L 10.15625 0 L 10.15625 -61.6875 L 28.09375 -61.6875 L 29.5 -51.796875 C 31.757812 -55.847656 34.890625 -59.003906 38.890625 -61.265625 C 42.890625 -63.523438 47.617188 -64.65625 53.078125 -64.65625 Z M 53.078125 -64.65625 "/></g></g></g><g fill="#00265c" fill-opacity="1"><g transform="translate(354.65296, 126.326721)"><g><path d="M 35.4375 -25.6875 L 29.921875 -21.59375 L 29.921875 0 L 10.15625 0 L 10.15625 -111.375 L 29.921875 -111.375 L 29.921875 -41.640625 L 59.28125 -63.234375 L 71.28125 -52.65625 L 49.40625 -36.140625 L 73.546875 0 L 50.53125 0 Z M 35.4375 -25.6875 "/></g></g></g><g fill="#00265c" fill-opacity="1"><g transform="translate(422.970236, 126.326721)"><g><path d="M 40.9375 -15.109375 C 44.882812 -15.109375 48.976562 -16.472656 53.21875 -19.203125 L 61.96875 -4.515625 C 58.582031 -2.628906 55.003906 -1.125 51.234375 0 C 47.472656 1.125 43.898438 1.6875 40.515625 1.6875 C 33.171875 1.6875 26.835938 0.300781 21.515625 -2.46875 C 16.203125 -5.25 12.179688 -9.15625 9.453125 -14.1875 C 6.722656 -19.21875 5.359375 -24.984375 5.359375 -31.484375 C 5.359375 -37.503906 6.9375 -43.050781 10.09375 -48.125 C 13.25 -53.207031 17.554688 -57.234375 23.015625 -60.203125 C 28.472656 -63.171875 34.445312 -64.65625 40.9375 -64.65625 C 49.78125 -64.65625 57.046875 -62.066406 62.734375 -56.890625 C 68.429688 -51.710938 72.128906 -44.320312 73.828125 -34.71875 L 28.65625 -20.328125 C 31.664062 -16.847656 35.757812 -15.109375 40.9375 -15.109375 Z M 39.375 -49.265625 C 34.957031 -49.265625 31.429688 -47.757812 28.796875 -44.75 C 26.160156 -41.738281 24.84375 -37.691406 24.84375 -32.609375 L 24.84375 -31.34375 L 51.953125 -40.515625 C 49.972656 -46.347656 45.78125 -49.265625 39.375 -49.265625 Z M 39.375 -49.265625 "/></g></g></g><g fill="#00265c" fill-opacity="1"><g transform="translate(492.275559, 126.326721)"><g><path d="M 77.921875 -111.375 L 77.921875 0 L 58.15625 0 L 58.15625 -6.5 C 51 -1.039062 43.375 1.6875 35.28125 1.6875 C 29.539062 1.6875 24.410156 0.320312 19.890625 -2.40625 C 15.378906 -5.132812 11.828125 -9.035156 9.234375 -14.109375 C 6.648438 -19.191406 5.359375 -25.171875 5.359375 -32.046875 C 5.359375 -38.816406 6.742188 -44.671875 9.515625 -49.609375 C 12.296875 -54.554688 16.132812 -58.320312 21.03125 -60.90625 C 25.925781 -63.5 31.523438 -64.796875 37.828125 -64.796875 C 41.878906 -64.796875 45.691406 -64.160156 49.265625 -62.890625 C 52.835938 -61.617188 55.847656 -59.757812 58.296875 -57.3125 L 58.296875 -111.375 Z M 41.78125 -14.96875 C 45.726562 -14.96875 49.019531 -15.742188 51.65625 -17.296875 C 54.289062 -18.847656 56.457031 -21.175781 58.15625 -24.28125 L 58.15625 -39.375 C 57.03125 -42.394531 55.003906 -44.796875 52.078125 -46.578125 C 49.160156 -48.367188 45.726562 -49.265625 41.78125 -49.265625 C 37.351562 -49.265625 33.515625 -47.664062 30.265625 -44.46875 C 27.023438 -41.269531 25.40625 -37.222656 25.40625 -32.328125 C 25.40625 -29.128906 26.15625 -26.1875 27.65625 -23.5 C 29.164062 -20.820312 31.164062 -18.726562 33.65625 -17.21875 C 36.15625 -15.71875 38.863281 -14.96875 41.78125 -14.96875 Z M 41.78125 -14.96875 "/></g></g></g><g fill="#0066ff" fill-opacity="1"><g transform="translate(571.592038, 126.326721)"><g><path d="M 64.796875 -20.328125 L 30.34375 -20.328125 L 21.875 0 L 1.6875 0 L 48.5625 -107.984375 L 49.6875 -107.984375 L 96.546875 0 L 72.84375 0 Z M 58.015625 -37.546875 L 48 -62.8125 L 37.546875 -37.546875 Z M 58.015625 -37.546875 "/></g></g></g><g fill="#0066ff" fill-opacity="1"><g transform="translate(661.082142, 126.326721)"><g><path d="M 29.921875 -111.375 L 29.921875 0 L 10.15625 0 L 10.15625 -111.375 Z M 29.921875 -111.375 "/></g></g></g><g fill="#0066ff" fill-opacity="1"><g transform="translate(692.417494, 126.326721)"><g><path d="M 29.921875 -111.375 L 29.921875 0 L 10.15625 0 L 10.15625 -111.375 Z M 29.921875 -111.375 "/></g></g></g></svg>